<svg width="14" height="14" viewBox="0 0 14 14" fill="none" xmlns="http://www.w3.org/2000/svg">
<path d="M4.05998 1.44669C4.15332 1.35336 4.26221 1.30669 4.38665 1.30669C4.51109 1.30669 4.60443 1.35336 4.66665 1.44669L9.93998 6.67336C10.0333 6.76669 10.08 6.87558 10.08 7.00003C10.08 7.12447 10.0333 7.23336 9.93998 7.32669L4.66665 12.5534C4.60443 12.6467 4.51109 12.6934 4.38665 12.6934C4.26221 12.6934 4.15332 12.6467 4.05998 12.5534C3.96665 12.46 3.91998 12.3589 3.91998 12.25C3.91998 12.1411 3.96665 12.04 4.05998 11.9467L9.00665 7.00003L4.05998 2.05336C3.96665 1.96003 3.91998 1.85892 3.91998 1.75003C3.91998 1.64114 3.96665 1.54003 4.05998 1.44669Z" fill="black"/>
</svg>
