<svg width="50" height="50" viewBox="0 0 50 50" fill="none" xmlns="http://www.w3.org/2000/svg">
<mask id="mask0_1_259" style="mask-type:luminance" maskUnits="userSpaceOnUse" x="5" y="5" width="40" height="40">
<path d="M5 5H45V45H5V5Z" fill="white"/>
</mask>
<g mask="url(#mask0_1_259)">
<path d="M43.7547 43.7542H6.24583V40.0188H20.3005C20.3589 40.0365 20.4208 40.0464 20.4849 40.0464C20.549 40.0464 20.6109 40.0365 20.6688 40.0188H29.5276C29.5859 40.0365 29.6479 40.0464 29.712 40.0464C29.776 40.0464 29.838 40.0365 29.8958 40.0188H43.7547V43.7542ZM9.21458 38.7036V25.4604C9.21458 24.3667 10.8604 23.1844 13.6172 22.2969C13.7214 22.2635 13.8266 22.2307 13.9328 22.1979V38.7036C13.9328 38.7271 13.9344 38.75 13.937 38.7729H9.21094C9.21354 38.75 9.21458 38.7271 9.21458 38.7036ZM10.2245 9.08802C11.0083 8.58698 12.1755 8.1026 13.601 7.68698C13.7104 7.65469 13.8214 7.62344 13.9328 7.59219V20.8995C13.6958 20.9677 13.463 21.038 13.2359 21.1109C11.6526 21.6208 10.3995 22.2214 9.51198 22.8969C9.40729 22.976 9.30885 23.0568 9.21458 23.1375V10.2156C9.21458 9.91406 9.59219 9.49271 10.2245 9.08802ZM34.8766 7.24531V15.8755C32.524 15.1964 30.0677 14.7682 27.563 14.6016C25.3458 14.4542 23.087 14.5104 20.8474 14.7682C18.1526 15.0786 16.1568 15.6016 15.1786 15.8953V7.27708C18.0833 6.60833 21.5391 6.24531 25.0984 6.24531C28.6 6.24531 32.0016 6.59687 34.8766 7.24531ZM39.9719 9.08802C40.6047 9.49271 40.9818 9.91406 40.9818 10.2156V23.1375C40.8885 23.0568 40.7896 22.976 40.6849 22.8969C39.7974 22.2214 38.5443 21.6208 36.9609 21.1109C36.6891 21.0234 36.4094 20.9396 36.1224 20.8589V7.55417C36.2818 7.5974 36.4406 7.64115 36.5958 7.68698C38.0214 8.1026 39.1885 8.58698 39.9719 9.08802ZM36.1224 38.7036V22.1562C36.2771 22.2021 36.4297 22.249 36.5797 22.2969C39.3365 23.1844 40.9818 24.3667 40.9818 25.4604V38.7036C40.9818 38.7271 40.9833 38.75 40.9859 38.7729H36.1182C36.1208 38.75 36.1224 38.7271 36.1224 38.7036ZM34.8766 20.5401C32.1802 19.9135 28.9844 19.5615 25.6229 19.5281V15.775C28.3526 15.8141 31.538 16.1703 34.8766 17.1745V20.5401ZM15.1786 17.201C15.8755 16.9766 18.0177 16.3448 21.0297 16.001C22.0052 15.8901 23.1328 15.8036 24.3771 15.7781V19.5307C21.0292 19.576 17.8521 19.9385 15.1786 20.5729V17.201ZM29.712 23.8432H20.4849C20.1411 23.8432 19.862 24.1219 19.862 24.4661V38.7729H15.1745C15.1771 38.75 15.1786 38.7271 15.1786 38.7036V21.8547C18.0016 21.1521 21.4557 20.7708 25.0984 20.7708C28.6807 20.7708 32.0802 21.1396 34.8766 21.8198V38.7036C34.8766 38.7271 34.8781 38.75 34.8807 38.7729H30.3349V24.4661C30.3349 24.1219 30.0563 23.8432 29.712 23.8432ZM21.1078 38.7729V25.0885H29.0891V38.7729H21.1078ZM44.3771 38.7729H42.224C42.2266 38.75 42.2276 38.7271 42.2276 38.7036V10.2156C42.2276 9.44375 41.6948 8.71146 40.6432 8.03906C39.749 7.46667 38.5042 6.94583 36.9448 6.49063C33.649 5.52917 29.4417 5 25.0984 5C20.7552 5 16.5479 5.52917 13.2521 6.49063C11.6927 6.94583 10.4479 7.46667 9.55365 8.03906C8.50208 8.71146 7.96927 9.44375 7.96927 10.2156V38.7036C7.96927 38.7271 7.97031 38.75 7.97292 38.7729H5.62292C5.27865 38.7729 5 39.0516 5 39.3958V44.3771C5 44.7214 5.27865 45 5.62292 45H44.3771C44.7214 45 45 44.7214 45 44.3771V39.3958C45 39.0516 44.7214 38.7729 44.3771 38.7729Z" fill="#2ECA6A"/>
</g>
<path d="M19.0594 11.8724C18.8344 11.099 18.6099 10.3281 18.3859 9.55989C18.3859 10.4516 18.3859 11.3437 18.3859 12.2359C18.3859 12.3838 18.3505 12.5031 18.2787 12.5953C18.2073 12.687 18.113 12.7479 17.9948 12.7786C17.8807 12.8083 17.788 12.7963 17.7156 12.7427C17.6438 12.6891 17.6078 12.5875 17.6078 12.4375C17.6078 11.4151 17.6078 10.3927 17.6078 9.37031C17.6078 9.20104 17.6552 9.07395 17.75 8.98906C17.8448 8.90468 17.9729 8.84114 18.1349 8.79999C18.2224 8.77812 18.3099 8.75624 18.3974 8.73437C18.5557 8.69583 18.6708 8.68229 18.7422 8.69218C18.8141 8.70208 18.8672 8.73749 18.9016 8.79843C18.9359 8.85937 18.975 8.96249 19.0193 9.10781C19.2229 9.77031 19.4271 10.4349 19.6313 11.1021C19.8359 10.3531 20.0406 9.60624 20.2453 8.86197C20.2896 8.69895 20.3292 8.5802 20.3641 8.5052C20.3984 8.43072 20.4521 8.37343 20.5245 8.33489C20.5969 8.29635 20.713 8.26354 20.8729 8.23854C20.962 8.22447 21.0505 8.21093 21.1396 8.19791C21.3037 8.17343 21.4344 8.18489 21.5313 8.23124C21.6276 8.27708 21.676 8.38541 21.676 8.55468C21.676 9.57708 21.676 10.599 21.676 11.6219C21.6766 11.7698 21.6401 11.8854 21.5672 11.9693C21.4948 12.0526 21.3974 12.1031 21.276 12.1203C21.162 12.137 21.0682 12.1141 20.9948 12.051C20.9214 11.988 20.8844 11.8828 20.8844 11.7349C20.8844 10.8427 20.8844 9.95104 20.8844 9.05885C20.6578 9.9177 20.4313 10.7792 20.2052 11.6432C20.1609 11.8115 20.1245 11.9354 20.0969 12.0156C20.0688 12.0958 20.0177 12.1734 19.9427 12.2495C19.8677 12.3255 19.7635 12.376 19.6313 12.4026C19.5313 12.4224 19.4474 12.4203 19.3781 12.3953C19.3094 12.3698 19.2552 12.3307 19.2172 12.2771C19.1787 12.224 19.1484 12.162 19.1266 12.0917C19.1047 12.0219 19.0823 11.9484 19.0594 11.8724Z" fill="#2ECA6A"/>
<path d="M23.5833 10.2995C24.0094 10.2719 24.4354 10.2531 24.862 10.2438C24.6469 9.71512 24.4318 9.18908 24.2167 8.66512C24.0057 9.20783 23.7943 9.75262 23.5833 10.2995ZM25.3005 11.3136C25.2323 11.1516 25.1641 10.9901 25.0958 10.8292C24.5156 10.8375 23.9349 10.8625 23.3557 10.9047C23.2875 11.0755 23.2198 11.2464 23.1516 11.4172C23.0719 11.6177 23.0042 11.7542 22.9479 11.8271C22.8911 11.8995 22.799 11.9417 22.6708 11.9542C22.562 11.9646 22.4661 11.938 22.3828 11.8745C22.299 11.811 22.2578 11.7339 22.2578 11.6422C22.2578 11.5891 22.2672 11.5334 22.2865 11.475C22.3062 11.4167 22.338 11.3349 22.3828 11.2297C22.7464 10.3521 23.1109 9.48127 23.4755 8.61721C23.5063 8.54273 23.5438 8.45314 23.5875 8.34898C23.6313 8.24481 23.6781 8.15783 23.7276 8.08804C23.7776 8.01773 23.8427 7.95991 23.9234 7.91408C24.0042 7.86825 24.1036 7.84273 24.2224 7.83752C24.3432 7.83231 24.4438 7.8495 24.525 7.88804C24.6057 7.92658 24.6708 7.97814 24.7208 8.04221C24.7703 8.10575 24.812 8.17502 24.8464 8.24898C24.8802 8.32346 24.9234 8.42241 24.976 8.54637C25.3495 9.37346 25.7224 10.2073 26.0953 11.0479C26.1828 11.2401 26.2271 11.3797 26.2271 11.4662C26.2271 11.5557 26.1854 11.637 26.1026 11.7104C26.0198 11.7839 25.9203 11.8198 25.8031 11.8188C25.7349 11.8182 25.6766 11.8068 25.6276 11.7849C25.5792 11.7625 25.538 11.7323 25.5052 11.6943C25.4719 11.6568 25.4365 11.5985 25.3984 11.5203C25.3604 11.4422 25.3276 11.3729 25.3005 11.3136Z" fill="#2ECA6A"/>
<path d="M27.713 8.3646C27.713 9.3047 27.713 10.2453 27.713 11.186C28.2979 11.2281 28.8823 11.288 29.4646 11.3651C29.6042 11.3839 29.7109 11.4297 29.7854 11.5021C29.8599 11.5745 29.8974 11.6573 29.8974 11.7505C29.8974 11.8458 29.8604 11.9177 29.787 11.9662C29.7135 12.0146 29.6063 12.0292 29.4646 12.0104C28.7708 11.9188 28.075 11.8511 27.3771 11.8083C27.1885 11.7969 27.0531 11.7521 26.9703 11.6724C26.8875 11.5927 26.8464 11.4682 26.8464 11.299C26.8464 10.3042 26.8464 9.30887 26.8464 8.31356C26.8464 8.15522 26.8854 8.03752 26.9641 7.96252C27.0432 7.88647 27.1469 7.8521 27.275 7.85991C27.4057 7.8672 27.5109 7.91356 27.5917 7.99741C27.6724 8.08179 27.713 8.20418 27.713 8.3646Z" fill="#2ECA6A"/>
<path d="M31.3016 8.84478C31.3016 9.78541 31.3016 10.726 31.3016 11.6661C31.8802 11.7797 32.4552 11.9099 33.0281 12.0578C33.1646 12.0927 33.2698 12.1516 33.3427 12.2333C33.4156 12.3146 33.4521 12.4026 33.4521 12.4958C33.4521 12.5906 33.4162 12.6583 33.3443 12.6979C33.2719 12.7375 33.1667 12.7385 33.0281 12.7026C32.3464 12.5271 31.6599 12.3755 30.9703 12.2484C30.7833 12.2141 30.649 12.1531 30.5672 12.063C30.4854 11.9734 30.4443 11.8443 30.4443 11.675C30.4443 10.6802 30.4443 9.68488 30.4443 8.69009C30.4443 8.53124 30.4833 8.41874 30.5615 8.35259C30.6396 8.28645 30.7422 8.26457 30.8693 8.28749C30.9979 8.31093 31.1026 8.36978 31.1823 8.46353C31.262 8.55728 31.3016 8.68488 31.3016 8.84478Z" fill="#2ECA6A"/>
</svg>
