<svg width="41" height="40" viewBox="0 0 41 40" fill="none" xmlns="http://www.w3.org/2000/svg">
<g clip-path="url(#clip0_1_66)">
<path d="M2 1.2901C2 0.934544 2.11113 0.645653 2.3334 0.423431C2.55566 0.20121 2.8446 0.0900993 3.20023 0.0900993H7.06762C7.33434 0.0900993 7.57883 0.178989 7.80109 0.356766C8.02335 0.534542 8.17894 0.756763 8.26784 1.02343L9.20135 5.02343H38.2735C38.6291 5.02343 38.9403 5.17899 39.207 5.4901C39.4737 5.80121 39.5626 6.13454 39.4737 6.4901L35.7397 26.4901C35.6508 26.8457 35.4952 27.1123 35.2729 27.2901C35.0507 27.4679 34.8062 27.5568 34.5395 27.5568H12.0019C11.7352 27.5568 11.4684 27.4679 11.2017 27.2901C10.935 27.1123 10.8017 26.8457 10.8017 26.4901L7.06762 6.62343L6.00075 2.4901H3.20023C2.8446 2.4901 2.55566 2.37899 2.3334 2.15676C2.11113 1.93454 2 1.64566 2 1.2901ZM9.73479 7.55676L13.0687 25.0234H33.4726L36.8065 7.55676H9.73479ZM14.5357 27.5568C13.1132 27.5568 11.913 28.0457 10.935 29.0234C9.95705 30.0012 9.46807 31.179 9.46807 32.5568C9.46807 33.9345 9.95705 35.1123 10.935 36.0901C11.913 37.0679 13.091 37.5568 14.469 37.5568C15.847 37.5568 17.025 37.0679 18.003 36.0901C18.981 35.1123 19.47 33.9345 19.47 32.5568C19.47 31.179 18.981 30.0012 18.003 29.0234C17.025 28.0457 15.8693 27.5568 14.5357 27.5568ZM32.0056 27.5568C30.5832 27.5568 29.4052 28.0457 28.4716 29.0234C27.5381 30.0012 27.0714 31.179 27.0714 32.5568C27.0714 33.9345 27.5381 35.1123 28.4716 36.0901C29.4052 37.0679 30.5832 37.5568 32.0056 37.5568C33.4281 37.5568 34.6284 37.0679 35.6063 36.0901C36.5843 35.1123 37.0733 33.9345 37.0733 32.5568C37.0733 31.179 36.5843 30.0012 35.6063 29.0234C34.6284 28.0457 33.4281 27.5568 32.0056 27.5568ZM14.5357 30.0901C15.2469 30.0901 15.847 30.3345 16.336 30.8234C16.825 31.3123 17.0473 31.8901 17.0028 32.5568C16.9584 33.2234 16.7139 33.8012 16.2693 34.2901C15.8248 34.779 15.2469 35.0234 14.5357 35.0234C13.8244 35.0234 13.2243 34.779 12.7354 34.2901C12.2464 33.8012 12.0019 33.2234 12.0019 32.5568C12.0019 31.8901 12.2464 31.3123 12.7354 30.8234C13.2243 30.3345 13.8244 30.0901 14.5357 30.0901ZM32.0056 30.0901C32.7169 30.0901 33.317 30.3345 33.806 30.8234C34.295 31.3123 34.5395 31.8901 34.5395 32.5568C34.5395 33.2234 34.295 33.8012 33.806 34.2901C33.317 34.779 32.7169 35.0234 32.0056 35.0234C31.2944 35.0234 30.6943 34.779 30.2053 34.2901C29.7163 33.8012 29.4718 33.2234 29.4718 32.5568C29.4718 31.8901 29.7163 31.3123 30.2053 30.8234C30.6943 30.3345 31.2944 30.0901 32.0056 30.0901Z" fill="black"/>
</g>
<defs>
<clipPath id="clip0_1_66">
<rect width="40.02" height="40" fill="white" transform="matrix(1 0 0 -1 0 40)"/>
</clipPath>
</defs>
</svg>
