<svg width="14" height="14" viewBox="0 0 14 14" fill="none" xmlns="http://www.w3.org/2000/svg">
<path d="M10.192 8.38952C10.0187 8.30261 9.1665 7.88377 9.00783 7.82544C8.84858 7.76769 8.73308 7.73911 8.617 7.91294C8.50208 8.08619 8.16958 8.47644 8.06867 8.59194C7.96775 8.70802 7.86625 8.72202 7.693 8.63569C7.51975 8.54819 6.96092 8.36561 6.29883 7.77527C5.78375 7.31561 5.4355 6.74802 5.33458 6.57419C5.23367 6.40094 5.32408 6.30702 5.41042 6.22069C5.48858 6.14311 5.58425 6.01827 5.67058 5.91736C5.7575 5.81586 5.78608 5.74352 5.84442 5.62744C5.90217 5.51194 5.87358 5.41102 5.82983 5.32411C5.78608 5.23719 5.43958 4.38377 5.2955 4.03669C5.15433 3.69894 5.01142 3.74502 4.90525 3.73919C4.80433 3.73452 4.68883 3.73336 4.57275 3.73336C4.45725 3.73336 4.26942 3.77652 4.11075 3.95036C3.95208 4.12361 3.50408 4.54302 3.50408 5.39644C3.50408 6.24927 4.12533 7.07352 4.21167 7.18961C4.29858 7.30511 5.43433 9.05627 7.17325 9.80702C7.58683 9.98552 7.90942 10.0923 8.16142 10.1716C8.57675 10.304 8.95475 10.2854 9.25283 10.2404C9.58592 10.1909 10.2783 9.82102 10.423 9.41619C10.5677 9.01136 10.5677 8.66427 10.5239 8.59194C10.4807 8.51961 10.3658 8.47644 10.192 8.38952ZM7.02917 12.7079H7.02683C5.9942 12.708 4.98055 12.4304 4.09208 11.9041L3.8815 11.7793L1.69925 12.3521L2.28142 10.2241L2.14433 10.0059C1.56709 9.08676 1.26171 8.02301 1.2635 6.93761C1.26408 3.75844 3.85117 1.17194 7.0315 1.17194C8.5715 1.17194 10.0193 1.77277 11.1078 2.86244C11.6449 3.39713 12.0706 4.03303 12.3603 4.73333C12.6499 5.43363 12.7978 6.18443 12.7954 6.94227C12.7937 10.1214 10.2072 12.7079 7.02917 12.7079ZM11.9367 2.03469C11.294 1.38773 10.5293 0.874754 9.68688 0.525491C8.84447 0.176228 7.94111 -0.00237781 7.02917 2.39036e-05C3.20542 2.39036e-05 0.0933322 3.11211 0.0915822 6.93702C0.0915822 8.15969 0.410666 9.35319 1.01792 10.4049L0.0332489 14L3.71117 13.0352C4.72826 13.5893 5.868 13.8797 7.02625 13.8799H7.02917C10.8523 13.8799 13.965 10.7678 13.9667 6.94227C13.9696 6.03068 13.7916 5.12758 13.4432 4.28521C13.0947 3.44284 12.5827 2.67791 11.9367 2.03469Z" fill="#65CF72"/>
</svg>
