<svg width="50" height="50" viewBox="0 0 50 50" fill="none" xmlns="http://www.w3.org/2000/svg">
<mask id="mask0_1_195" style="mask-type:luminance" maskUnits="userSpaceOnUse" x="5" y="16" width="40" height="29">
<path d="M5.42499 16.9333H44.625V45H5.42499V16.9333Z" fill="white"/>
</mask>
<g mask="url(#mask0_1_195)">
<path d="M43.863 44.9912H6.14583C6.09322 44.9912 6.04166 44.9849 5.99062 44.9735C5.93958 44.9615 5.89062 44.9438 5.84374 44.9209C5.79687 44.8979 5.75312 44.8698 5.71249 44.8365C5.67187 44.8037 5.63541 44.7662 5.60364 44.725C5.57135 44.6834 5.54426 44.6391 5.52239 44.5912C5.50051 44.5438 5.48437 44.4943 5.47395 44.4433C5.46354 44.3917 5.45885 44.3401 5.45989 44.2875C5.46145 44.2354 5.46874 44.1839 5.48176 44.1334L12.4932 17.5099C12.512 17.436 12.5427 17.3677 12.5844 17.3042C12.626 17.2406 12.6771 17.1854 12.737 17.1391C12.7974 17.0922 12.8635 17.0568 12.9354 17.0318C13.0073 17.0073 13.0812 16.9948 13.1573 16.9948H19.6443C19.6896 16.9948 19.7344 16.9995 19.7781 17.0084C19.8224 17.0172 19.8656 17.0302 19.9073 17.0474C19.949 17.0646 19.9885 17.0854 20.0255 17.1104C20.063 17.136 20.0979 17.1641 20.1297 17.1959C20.1615 17.2281 20.1901 17.2625 20.2151 17.3C20.2401 17.3375 20.2615 17.3771 20.2786 17.4188C20.2958 17.4604 20.3088 17.5031 20.3177 17.5474C20.3266 17.5917 20.3307 17.6365 20.3307 17.6813C20.3307 17.7266 20.3266 17.7709 20.3177 17.8151C20.3088 17.8594 20.2958 17.9026 20.2786 17.9443C20.2615 17.9854 20.2401 18.025 20.2151 18.0625C20.1901 18.1 20.1615 18.1349 20.1297 18.1667C20.0979 18.1985 20.063 18.2271 20.0255 18.2521C19.9885 18.2771 19.949 18.2985 19.9073 18.3156C19.8656 18.3328 19.8224 18.3459 19.7781 18.3547C19.7344 18.3636 19.6896 18.3677 19.6443 18.3677H13.6859L7.03645 43.6183H42.9724L36.3229 18.3714H30.9125C30.8672 18.3714 30.8229 18.3667 30.7786 18.3578C30.7344 18.349 30.6911 18.336 30.6495 18.3188C30.6083 18.3016 30.5687 18.2807 30.5312 18.2557C30.4937 18.2302 30.4588 18.2021 30.4271 18.1703C30.3953 18.138 30.3667 18.1037 30.3417 18.0662C30.3167 18.0287 30.2953 17.9891 30.2781 17.9474C30.2609 17.9057 30.2479 17.863 30.2391 17.8188C30.2302 17.7745 30.226 17.7297 30.226 17.6849C30.226 17.6396 30.2302 17.5953 30.2391 17.5511C30.2479 17.5068 30.2609 17.4636 30.2781 17.4219C30.2953 17.3807 30.3167 17.3412 30.3417 17.3037C30.3667 17.2662 30.3953 17.2313 30.4271 17.1995C30.4588 17.1677 30.4937 17.1391 30.5312 17.1141C30.5687 17.0891 30.6083 17.0677 30.6495 17.0505C30.6911 17.0334 30.7344 17.0203 30.7786 17.0115C30.8229 17.0026 30.8672 16.9985 30.9125 16.9985H36.8516C36.9276 16.9985 37.0016 17.011 37.0734 17.0354C37.1453 17.0599 37.2115 17.0959 37.2713 17.1422C37.3312 17.1891 37.3823 17.2438 37.4245 17.3073C37.4661 17.3709 37.4963 17.4396 37.5156 17.513L44.5271 44.1334C44.5401 44.1839 44.5474 44.2354 44.5484 44.2875C44.55 44.3401 44.5453 44.3917 44.5349 44.4433C44.524 44.4943 44.5078 44.5438 44.4859 44.5912C44.4641 44.6391 44.437 44.6834 44.4052 44.725C44.3729 44.7662 44.337 44.8037 44.2963 44.8365C44.2557 44.8698 44.212 44.8979 44.1651 44.9209C44.1177 44.9438 44.0687 44.9615 44.0177 44.9735C43.9667 44.9849 43.9151 44.9912 43.863 44.9912Z" fill="#2ECA6A"/>
</g>
<path d="M40.0568 42.0578H9.95158C9.89949 42.0578 9.84793 42.0516 9.79689 42.0396C9.74585 42.0276 9.69689 42.0104 9.65001 41.987C9.60314 41.9641 9.55939 41.9359 9.51876 41.9026C9.47814 41.8698 9.4422 41.8323 9.40991 41.7911C9.37814 41.7495 9.35105 41.7052 9.32918 41.6578C9.3073 41.6099 9.29116 41.5609 9.28074 41.5094C9.27033 41.4583 9.26564 41.4062 9.2672 41.3542C9.26824 41.3016 9.27553 41.2505 9.28855 41.1995L14.7547 20.4469C14.774 20.3729 14.8042 20.3047 14.8458 20.2411C14.8875 20.1776 14.9386 20.1224 14.9985 20.076C15.0583 20.0297 15.1245 19.9937 15.1964 19.9693C15.2682 19.9443 15.3422 19.9318 15.4182 19.9318H34.5906C34.6667 19.9318 34.7406 19.9443 34.8125 19.9693C34.8844 19.9937 34.95 20.0297 35.0099 20.076C35.0703 20.1224 35.1208 20.1776 35.1625 20.2411C35.2047 20.3047 35.2349 20.3729 35.2537 20.4469L40.7203 41.1995C40.7333 41.2505 40.7401 41.3016 40.7417 41.3542C40.7427 41.4062 40.7386 41.4583 40.7276 41.5094C40.7172 41.5609 40.7011 41.6099 40.6792 41.6578C40.6573 41.7052 40.6307 41.7495 40.5985 41.7911C40.5667 41.8323 40.5302 41.8698 40.4896 41.9026C40.4495 41.9359 40.4057 41.9641 40.3583 41.987C40.3115 42.0104 40.2625 42.0276 40.212 42.0396C40.161 42.0516 40.1094 42.0578 40.0568 42.0578ZM10.8422 40.6849H39.1662L34.0615 21.3047H15.9474L10.8422 40.6849Z" fill="#2ECA6A"/>
<mask id="mask1_1_195" style="mask-type:luminance" maskUnits="userSpaceOnUse" x="18" y="5" width="8" height="17">
<path d="M18.9333 5H26V21.3333H18.9333V5Z" fill="white"/>
</mask>
<g mask="url(#mask1_1_195)">
<path d="M19.6443 21.3047C19.5995 21.3047 19.5547 21.3 19.5104 21.2917C19.4661 21.2828 19.4234 21.2698 19.3818 21.2526C19.3401 21.2349 19.3005 21.2141 19.263 21.1891C19.2255 21.1641 19.1911 21.1354 19.1588 21.1036C19.1271 21.0719 19.0989 21.037 19.0739 20.9995C19.0484 20.962 19.0276 20.9224 19.0104 20.8807C18.9932 20.8391 18.9802 20.7964 18.9713 20.7521C18.9625 20.7078 18.9578 20.6635 18.9578 20.6182V9.18541C18.9578 6.88281 20.5245 5.00885 22.45 5.00885C24.3755 5.00885 25.9422 6.88281 25.9422 9.18541C25.9422 9.23073 25.9375 9.27552 25.9286 9.31927C25.9203 9.36354 25.9073 9.40677 25.8896 9.44843C25.8724 9.4901 25.8515 9.52916 25.8265 9.56666C25.8015 9.60416 25.7729 9.63906 25.7411 9.67083C25.7094 9.7026 25.6745 9.73125 25.637 9.75625C25.5995 9.78125 25.5599 9.8026 25.5182 9.81979C25.4765 9.83698 25.4338 9.85 25.3896 9.85885C25.3453 9.8677 25.3005 9.87187 25.2557 9.87187C25.2104 9.87187 25.1661 9.8677 25.1219 9.85885C25.0776 9.85 25.0349 9.83698 24.9932 9.81979C24.9515 9.8026 24.912 9.78125 24.8745 9.75625C24.837 9.73125 24.8021 9.7026 24.7703 9.67083C24.7385 9.63906 24.7099 9.60416 24.6849 9.56666C24.6599 9.52916 24.6385 9.4901 24.6213 9.44843C24.6041 9.40677 24.5911 9.36354 24.5823 9.31927C24.5734 9.27552 24.5693 9.23073 24.5693 9.18541C24.5693 7.64114 23.6187 6.38177 22.45 6.38177C21.2812 6.38177 20.3307 7.63958 20.3307 9.18541V20.6182C20.3307 20.6635 20.3265 20.7078 20.3177 20.7521C20.3088 20.7964 20.2958 20.8391 20.2786 20.8807C20.2614 20.9224 20.2401 20.962 20.2151 20.9995C20.1901 21.037 20.1614 21.0719 20.1297 21.1036C20.0979 21.1354 20.063 21.1641 20.0255 21.1891C19.9885 21.2141 19.9489 21.2349 19.9073 21.2526C19.8656 21.2698 19.8224 21.2828 19.7781 21.2917C19.7344 21.3 19.6896 21.3047 19.6443 21.3047Z" fill="#2ECA6A"/>
</g>
<mask id="mask2_1_195" style="mask-type:luminance" maskUnits="userSpaceOnUse" x="30" y="5" width="8" height="17">
<path d="M30.1333 5H37.3333V21.3333H30.1333V5Z" fill="white"/>
</mask>
<g mask="url(#mask2_1_195)">
<path d="M30.9125 21.3047C30.8672 21.3047 30.8229 21.3 30.7786 21.2917C30.7344 21.2828 30.6911 21.2698 30.6495 21.2526C30.6083 21.2349 30.5688 21.2141 30.5313 21.1891C30.4938 21.1641 30.4589 21.1354 30.4271 21.1036C30.3953 21.0719 30.3667 21.037 30.3417 20.9995C30.3167 20.962 30.2953 20.9224 30.2781 20.8807C30.2609 20.8391 30.2479 20.7964 30.2391 20.7521C30.2302 20.7078 30.226 20.6635 30.226 20.6182V9.18541C30.226 6.88281 31.7927 5.00885 33.7182 5.00885C35.6432 5.00885 37.2099 6.88281 37.2099 9.18541C37.2099 9.23073 37.2057 9.27552 37.1969 9.31927C37.188 9.36354 37.175 9.40677 37.1578 9.44843C37.1406 9.4901 37.1193 9.52916 37.0943 9.56666C37.0693 9.60416 37.0406 9.63906 37.0089 9.67083C36.9771 9.7026 36.9422 9.73125 36.9052 9.75625C36.8677 9.78125 36.8281 9.8026 36.7865 9.81979C36.7448 9.83698 36.7016 9.85 36.6573 9.85885C36.6135 9.8677 36.5688 9.87187 36.5234 9.87187C36.4786 9.87187 36.4339 9.8677 36.3896 9.85885C36.3453 9.85 36.3026 9.83698 36.2609 9.81979C36.2193 9.8026 36.1797 9.78125 36.1422 9.75625C36.1047 9.73125 36.0703 9.7026 36.0385 9.67083C36.0063 9.63906 35.9781 9.60416 35.9531 9.56666C35.9281 9.52916 35.9068 9.4901 35.8896 9.44843C35.8724 9.40677 35.8594 9.36354 35.8505 9.31927C35.8417 9.27552 35.8375 9.23073 35.8375 9.18541C35.8375 7.64114 34.8865 6.38177 33.7182 6.38177C32.5495 6.38177 31.599 7.63958 31.599 9.18541V20.6182C31.599 20.6635 31.5943 20.7078 31.5854 20.7521C31.5766 20.7964 31.5635 20.8391 31.5464 20.8807C31.5292 20.9224 31.5083 20.962 31.4833 20.9995C31.4578 21.037 31.4297 21.0719 31.3979 21.1036C31.3656 21.1354 31.3313 21.1641 31.2938 21.1891C31.2563 21.2141 31.2167 21.2349 31.175 21.2526C31.1333 21.2698 31.0906 21.2828 31.0464 21.2917C31.0021 21.3 30.9573 21.3047 30.9125 21.3047Z" fill="#2ECA6A"/>
</g>
<path d="M30.9125 12.0041H19.6443C19.5995 12.0041 19.5547 11.9995 19.5104 11.9906C19.4662 11.9823 19.4234 11.9692 19.3818 11.9515C19.3401 11.9344 19.3005 11.9135 19.263 11.8885C19.2255 11.8635 19.1912 11.8349 19.1589 11.8031C19.1271 11.7713 19.099 11.7364 19.074 11.6989C19.0484 11.6614 19.0276 11.6219 19.0104 11.5802C18.9932 11.5385 18.9802 11.4958 18.9714 11.4515C18.9625 11.4073 18.9578 11.3625 18.9578 11.3177C18.9578 11.2724 18.9625 11.2281 18.9714 11.1838C18.9802 11.1396 18.9932 11.0969 19.0104 11.0552C19.0276 11.0135 19.0484 10.9739 19.074 10.9364C19.099 10.8989 19.1271 10.864 19.1589 10.8323C19.1912 10.8005 19.2255 10.7719 19.263 10.7469C19.3005 10.7219 19.3401 10.7005 19.3818 10.6833C19.4234 10.6661 19.4662 10.6531 19.5104 10.6442C19.5547 10.6354 19.5995 10.6312 19.6443 10.6312H30.9125C30.9573 10.6312 31.0021 10.6354 31.0464 10.6442C31.0906 10.6531 31.1333 10.6661 31.175 10.6833C31.2167 10.7005 31.2563 10.7219 31.2938 10.7469C31.3313 10.7719 31.3656 10.8005 31.3979 10.8323C31.4297 10.864 31.4578 10.8989 31.4833 10.9364C31.5083 10.9739 31.5292 11.0135 31.5464 11.0552C31.5636 11.0969 31.5766 11.1396 31.5854 11.1838C31.5943 11.2281 31.599 11.2724 31.599 11.3177C31.599 11.3625 31.5943 11.4073 31.5854 11.4515C31.5766 11.4958 31.5636 11.5385 31.5464 11.5802C31.5292 11.6219 31.5083 11.6614 31.4833 11.6989C31.4578 11.7364 31.4297 11.7713 31.3979 11.8031C31.3656 11.8349 31.3313 11.8635 31.2938 11.8885C31.2563 11.9135 31.2167 11.9344 31.175 11.9515C31.1333 11.9692 31.0906 11.9823 31.0464 11.9906C31.0021 11.9995 30.9573 12.0041 30.9125 12.0041Z" fill="#2ECA6A"/>
<path d="M30.9125 15.8562H19.6443C19.5995 15.8562 19.5547 15.8521 19.5104 15.8432C19.4662 15.8343 19.4234 15.8213 19.3818 15.8041C19.3401 15.787 19.3005 15.7656 19.263 15.7406C19.2255 15.7156 19.1912 15.6875 19.1589 15.6552C19.1271 15.6234 19.099 15.589 19.074 15.5515C19.0484 15.514 19.0276 15.4745 19.0104 15.4328C18.9932 15.3911 18.9802 15.3479 18.9714 15.3041C18.9625 15.2599 18.9578 15.2151 18.9578 15.1698C18.9578 15.125 18.9625 15.0802 18.9714 15.0359C18.9802 14.9916 18.9932 14.9489 19.0104 14.9073C19.0276 14.8656 19.0484 14.826 19.074 14.7885C19.099 14.751 19.1271 14.7166 19.1589 14.6849C19.1912 14.6526 19.2255 14.6245 19.263 14.5995C19.3005 14.5745 19.3401 14.5531 19.3818 14.5359C19.4234 14.5187 19.4662 14.5057 19.5104 14.4968C19.5547 14.488 19.5995 14.4838 19.6443 14.4838H30.9125C30.9573 14.4838 31.0021 14.488 31.0464 14.4968C31.0906 14.5057 31.1333 14.5187 31.175 14.5359C31.2167 14.5531 31.2563 14.5745 31.2938 14.5995C31.3313 14.6245 31.3656 14.6526 31.3979 14.6849C31.4297 14.7166 31.4578 14.751 31.4833 14.7885C31.5083 14.826 31.5292 14.8656 31.5464 14.9073C31.5636 14.9489 31.5766 14.9916 31.5854 15.0359C31.5943 15.0802 31.599 15.125 31.599 15.1698C31.599 15.2151 31.5943 15.2599 31.5854 15.3041C31.5766 15.3479 31.5636 15.3911 31.5464 15.4328C31.5292 15.4745 31.5083 15.514 31.4833 15.5515C31.4578 15.589 31.4297 15.6234 31.3979 15.6552C31.3656 15.6875 31.3313 15.7156 31.2938 15.7406C31.2563 15.7656 31.2167 15.787 31.175 15.8041C31.1333 15.8213 31.0906 15.8343 31.0464 15.8432C31.0021 15.8521 30.9573 15.8562 30.9125 15.8562Z" fill="#2ECA6A"/>
<path d="M28.7839 25.5536C27.5781 25.5536 26.9458 24.9922 26.438 24.5417C26.0031 24.1557 25.688 23.8771 25.0042 23.8771C24.3203 23.8771 24.0047 24.1557 23.5698 24.5417C23.062 24.9922 22.4302 25.5536 21.225 25.5536C20.0193 25.5536 19.388 24.9922 18.8802 24.5417C18.4443 24.1557 18.1302 23.8771 17.4453 23.8771C17.4005 23.8771 17.3557 23.8724 17.3115 23.8635C17.2672 23.8547 17.2245 23.8417 17.1828 23.8245C17.1411 23.8073 17.1016 23.7864 17.0641 23.7614C17.0266 23.7359 16.9922 23.7078 16.9599 23.676C16.9281 23.6437 16.8995 23.6094 16.8745 23.5719C16.8495 23.5344 16.8286 23.4948 16.8115 23.4531C16.7943 23.4114 16.7812 23.3687 16.7724 23.3245C16.7635 23.2802 16.7589 23.2354 16.7589 23.1906C16.7589 23.1453 16.7635 23.101 16.7724 23.0568C16.7812 23.0125 16.7943 22.9693 16.8115 22.9276C16.8286 22.8859 16.8495 22.8469 16.8745 22.8094C16.8995 22.7719 16.9281 22.737 16.9599 22.7052C16.9922 22.6734 17.0266 22.6448 17.0641 22.6198C17.1016 22.5948 17.1411 22.5734 17.1828 22.5562C17.2245 22.539 17.2672 22.526 17.3115 22.5172C17.3557 22.5083 17.4005 22.5042 17.4453 22.5042C18.6464 22.5042 19.2833 23.0646 19.7911 23.5146C20.226 23.901 20.5401 24.1807 21.225 24.1807C21.9094 24.1807 22.2234 23.901 22.6583 23.5146C23.1667 23.0646 23.799 22.5042 25.0042 22.5042C26.2099 22.5042 26.8411 23.0646 27.349 23.5146C27.7844 23.901 28.099 24.1807 28.7839 24.1807C29.4682 24.1807 29.7823 23.901 30.2172 23.5146C30.7255 23.0646 31.3578 22.5042 32.563 22.5042C32.6083 22.5042 32.6526 22.5083 32.6969 22.5172C32.7411 22.526 32.7844 22.539 32.826 22.5562C32.8677 22.5734 32.9068 22.5948 32.9443 22.6198C32.9818 22.6448 33.0167 22.6734 33.0484 22.7052C33.0802 22.737 33.1089 22.7719 33.1339 22.8094C33.1589 22.8469 33.1802 22.8859 33.1974 22.9276C33.2146 22.9693 33.2276 23.0125 33.2365 23.0568C33.2453 23.101 33.2495 23.1453 33.2495 23.1906C33.2495 23.2354 33.2453 23.2802 33.2365 23.3245C33.2276 23.3687 33.2146 23.4114 33.1974 23.4531C33.1802 23.4948 33.1589 23.5344 33.1339 23.5719C33.1089 23.6094 33.0802 23.6437 33.0484 23.676C33.0167 23.7078 32.9818 23.7359 32.9443 23.7614C32.9068 23.7864 32.8677 23.8073 32.826 23.8245C32.7844 23.8417 32.7411 23.8547 32.6969 23.8635C32.6526 23.8724 32.6083 23.8771 32.563 23.8771C31.8766 23.8771 31.5635 24.1557 31.1286 24.5417C30.6208 24.9922 29.9891 25.5536 28.7839 25.5536Z" fill="#2ECA6A"/>
<path d="M29.2026 28.9631C27.9156 28.9631 27.2292 28.4157 26.675 27.9756C26.1745 27.5756 25.8167 27.2891 25.0037 27.2891C24.1901 27.2891 23.8333 27.5782 23.3328 27.9756C22.7823 28.4167 22.0958 28.9641 20.8052 28.9641C19.5151 28.9641 18.8318 28.4167 18.2787 27.9766C17.7781 27.5766 17.4161 27.2901 16.6073 27.2901C16.562 27.2901 16.5177 27.2854 16.4734 27.2766C16.4292 27.2683 16.3859 27.2552 16.3443 27.2375C16.3026 27.2203 16.2635 27.1995 16.226 27.1745C16.1885 27.1495 16.1537 27.1209 16.1219 27.0891C16.0901 27.0573 16.0615 27.0224 16.0365 26.9849C16.0115 26.9474 15.9901 26.9078 15.9729 26.8662C15.9557 26.8245 15.9427 26.7818 15.9339 26.7375C15.925 26.6933 15.9208 26.6485 15.9208 26.6037C15.9208 26.5584 15.925 26.5141 15.9339 26.4698C15.9427 26.4256 15.9557 26.3823 15.9729 26.3412C15.9901 26.2995 16.0115 26.2599 16.0365 26.2224C16.0615 26.1849 16.0901 26.15 16.1219 26.1183C16.1537 26.0865 16.1885 26.0578 16.226 26.0328C16.2635 26.0078 16.3026 25.9865 16.3443 25.9693C16.3859 25.9521 16.4292 25.9391 16.4734 25.9302C16.5177 25.9214 16.562 25.9172 16.6073 25.9172C17.8943 25.9172 18.5807 26.4657 19.1349 26.9058C19.6349 27.3052 19.9927 27.5922 20.8052 27.5922C21.6177 27.5922 21.9766 27.3037 22.4766 26.9058C23.0307 26.4584 23.7172 25.9136 25.0042 25.9136C26.2912 25.9136 26.9776 26.462 27.5318 26.9021C28.0328 27.3021 28.3943 27.5886 29.2031 27.5886C30.0125 27.5886 30.3745 27.3006 30.8745 26.9021C31.4255 26.462 32.112 25.9136 33.4021 25.9136C33.4474 25.9136 33.4922 25.9183 33.5359 25.9271C33.5802 25.936 33.6234 25.949 33.6651 25.9662C33.7068 25.9834 33.7464 26.0042 33.7839 26.0297C33.8208 26.0547 33.8557 26.0828 33.8875 26.1146C33.9193 26.1469 33.9479 26.1813 33.9729 26.2188C33.9979 26.2563 34.0193 26.2959 34.0365 26.3375C34.0536 26.3792 34.0667 26.4219 34.0755 26.4662C34.0844 26.5104 34.0885 26.5552 34.0885 26.6C34.0885 26.6453 34.0844 26.6901 34.0755 26.7339C34.0667 26.7782 34.0536 26.8214 34.0365 26.8631C34.0193 26.9047 33.9979 26.9438 33.9729 26.9813C33.9479 27.0188 33.9193 27.0537 33.8875 27.0854C33.8557 27.1172 33.8208 27.1459 33.7839 27.1709C33.7464 27.1959 33.7068 27.2172 33.6651 27.2344C33.6234 27.2516 33.5802 27.2646 33.5359 27.2735C33.4922 27.2823 33.4474 27.2865 33.4021 27.2865C32.5922 27.2865 32.2313 27.5756 31.7307 27.9729C31.1818 28.4157 30.4953 28.9631 29.2026 28.9631Z" fill="#2ECA6A"/>
<path d="M29.6214 32.3734C28.2443 32.3734 27.5047 31.8364 26.9089 31.4042C26.3651 31.0094 25.9354 30.6969 25.0037 30.6969C24.0719 30.6969 23.6427 31.0094 23.099 31.4042C22.5042 31.8328 21.7636 32.3734 20.3865 32.3734C19.0094 32.3734 18.2693 31.8364 17.6745 31.4042C17.1307 31.0094 16.7005 30.6969 15.7698 30.6969C15.7245 30.6969 15.6802 30.6927 15.6359 30.6838C15.5917 30.675 15.549 30.662 15.5073 30.6448C15.4656 30.6276 15.4261 30.6062 15.3886 30.5812C15.3511 30.5562 15.3162 30.5281 15.2844 30.4958C15.2526 30.464 15.224 30.4297 15.199 30.3922C15.174 30.3547 15.1531 30.3151 15.1354 30.2734C15.1182 30.2318 15.1052 30.1885 15.0964 30.1448C15.088 30.1005 15.0833 30.0557 15.0833 30.0104C15.0833 29.9656 15.088 29.9208 15.0964 29.8765C15.1052 29.8323 15.1182 29.7896 15.1354 29.7479C15.1531 29.7062 15.174 29.6667 15.199 29.6292C15.224 29.5917 15.2526 29.5573 15.2844 29.5255C15.3162 29.4932 15.3511 29.4651 15.3886 29.4401C15.4261 29.4151 15.4656 29.3937 15.5073 29.3765C15.549 29.3594 15.5917 29.3463 15.6359 29.3375C15.6802 29.3286 15.7245 29.3245 15.7698 29.3245C17.1427 29.3245 17.8865 29.8614 18.4813 30.2937C19.0261 30.6885 19.4547 31.0005 20.3865 31.0005C21.3182 31.0005 21.7474 30.6885 22.2922 30.2937C22.887 29.8646 23.6266 29.3245 25.0037 29.3245C26.3807 29.3245 27.1208 29.8614 27.7156 30.2937C28.2604 30.6885 28.6901 31.0005 29.6214 31.0005C30.5521 31.0005 30.9828 30.6885 31.5266 30.2937C32.1224 29.8646 32.862 29.3245 34.2391 29.3245C34.2839 29.3245 34.3287 29.3286 34.3729 29.3375C34.4167 29.3463 34.4599 29.3594 34.5016 29.3765C34.5432 29.3937 34.5828 29.4151 34.6203 29.4401C34.6578 29.4651 34.6922 29.4932 34.724 29.5255C34.7563 29.5573 34.7844 29.5917 34.8094 29.6292C34.8344 29.6667 34.8557 29.7062 34.8729 29.7479C34.8901 29.7896 34.9031 29.8323 34.912 29.8765C34.9208 29.9208 34.925 29.9656 34.925 30.0104C34.925 30.0557 34.9208 30.1005 34.912 30.1448C34.9031 30.1885 34.8901 30.2318 34.8729 30.2734C34.8557 30.3151 34.8344 30.3547 34.8094 30.3922C34.7844 30.4297 34.7563 30.464 34.724 30.4958C34.6922 30.5281 34.6578 30.5562 34.6203 30.5812C34.5828 30.6062 34.5432 30.6276 34.5016 30.6448C34.4599 30.662 34.4167 30.675 34.3729 30.6838C34.3287 30.6927 34.2839 30.6969 34.2391 30.6969C33.3078 30.6969 32.8781 31.0094 32.3333 31.4042C31.7386 31.8364 30.999 32.3734 29.6214 32.3734Z" fill="#2ECA6A"/>
<path d="M30.4594 35.7839C28.9021 35.7839 28.0896 35.2849 27.3708 34.8401C26.7281 34.4458 26.1693 34.1042 25.0026 34.1042C23.8359 34.1042 23.2771 34.4474 22.6338 34.8401C21.9172 35.2813 21.1047 35.7839 19.5448 35.7839C17.9849 35.7839 17.1745 35.2849 16.4562 34.8401C15.8125 34.4458 15.2552 34.1042 14.088 34.1042C14.0432 34.1042 13.9984 34.0995 13.9542 34.0912C13.9099 34.0823 13.8672 34.0693 13.8255 34.0521C13.7838 34.0344 13.7443 34.0136 13.7068 33.9886C13.6693 33.9636 13.6344 33.9349 13.6026 33.9031C13.5708 33.8714 13.5422 33.8365 13.5172 33.799C13.4922 33.7615 13.4713 33.7219 13.4542 33.6802C13.4364 33.6386 13.4234 33.5958 13.4151 33.5516C13.4062 33.5073 13.4016 33.463 13.4016 33.4177C13.4016 33.3724 13.4062 33.3281 13.4151 33.2839C13.4234 33.2396 13.4364 33.1969 13.4542 33.1552C13.4713 33.1136 13.4922 33.074 13.5172 33.0365C13.5422 32.999 13.5708 32.9641 13.6026 32.9323C13.6344 32.9005 13.6693 32.8719 13.7068 32.8469C13.7443 32.8219 13.7838 32.8011 13.8255 32.7833C13.8672 32.7662 13.9099 32.7531 13.9542 32.7443C13.9984 32.7359 14.0432 32.7313 14.088 32.7313C15.6463 32.7313 16.4578 33.2307 17.1771 33.675C17.8193 34.0708 18.3781 34.412 19.5448 34.412C20.712 34.412 21.2703 34.0688 21.913 33.675C22.6302 33.2349 23.4427 32.7313 25.0016 32.7313C26.5609 32.7313 27.3713 33.2307 28.0906 33.675C28.7333 34.0708 29.2917 34.412 30.4583 34.412C31.6255 34.412 32.1838 34.0688 32.8276 33.675C33.5437 33.2349 34.3562 32.7313 35.9161 32.7313C35.9614 32.7313 36.0057 32.7359 36.05 32.7443C36.0943 32.7531 36.137 32.7662 36.1786 32.7833C36.2203 32.8011 36.2599 32.8219 36.2974 32.8469C36.3349 32.8719 36.3698 32.9005 36.4016 32.9323C36.4333 32.9641 36.462 32.999 36.487 33.0365C36.512 33.074 36.5333 33.1136 36.5505 33.1552C36.5677 33.1969 36.5807 33.2396 36.5896 33.2839C36.5979 33.3281 36.6026 33.3724 36.6026 33.4177C36.6026 33.463 36.5979 33.5073 36.5896 33.5516C36.5807 33.5958 36.5677 33.6386 36.5505 33.6802C36.5328 33.7219 36.512 33.7615 36.487 33.799C36.462 33.8365 36.4333 33.8714 36.4016 33.9031C36.3698 33.9349 36.3349 33.9636 36.2974 33.9886C36.2599 34.0136 36.2203 34.0344 36.1786 34.0521C36.137 34.0693 36.0943 34.0823 36.05 34.0912C36.0057 34.0995 35.9614 34.1042 35.9161 34.1042C34.7469 34.1042 34.1906 34.4474 33.5479 34.8401C32.8302 35.2849 32.0177 35.7839 30.4594 35.7839Z" fill="#2ECA6A"/>
<path d="M30.8792 39.1938C29.2281 39.1938 28.3641 38.7005 27.6016 38.2651C26.8979 37.8641 26.2906 37.5172 25.0042 37.5172C23.7182 37.5172 23.1099 37.8604 22.4073 38.2651C21.6443 38.7005 20.7771 39.1938 19.1297 39.1938C17.4823 39.1938 16.6141 38.7005 15.8521 38.2651C15.1484 37.8641 14.5412 37.5172 13.2552 37.5172C13.2099 37.5172 13.1651 37.513 13.1208 37.5042C13.0771 37.4953 13.0339 37.4823 12.9922 37.4651C12.9505 37.4479 12.9109 37.4266 12.8734 37.4016C12.8359 37.3766 12.8016 37.3479 12.7698 37.3162C12.738 37.2844 12.7094 37.2495 12.6844 37.212C12.6594 37.1745 12.638 37.1349 12.6208 37.0932C12.6037 37.0516 12.5906 37.0089 12.5818 36.9646C12.5729 36.9203 12.5688 36.8761 12.5688 36.8307C12.5688 36.786 12.5729 36.7412 12.5818 36.6969C12.5906 36.6526 12.6037 36.6099 12.6208 36.5682C12.638 36.5266 12.6594 36.487 12.6844 36.4495C12.7094 36.412 12.738 36.3771 12.7698 36.3453C12.8016 36.3136 12.8359 36.2849 12.8734 36.2599C12.9109 36.2349 12.9505 36.2141 12.9922 36.1969C13.0339 36.1792 13.0771 36.1662 13.1208 36.1578C13.1651 36.149 13.2099 36.1443 13.2552 36.1443C14.9057 36.1443 15.7698 36.6375 16.5323 37.0735C17.2354 37.4745 17.8427 37.8208 19.1297 37.8208C20.4167 37.8208 21.0234 37.4776 21.7266 37.0735C22.4885 36.6375 23.3568 36.1443 25.0042 36.1443C26.6516 36.1443 27.5193 36.6375 28.2818 37.0735C28.9844 37.4745 29.5922 37.8208 30.8792 37.8208C32.1662 37.8208 32.7724 37.4776 33.476 37.0735C34.2391 36.6375 35.1063 36.1443 36.7537 36.1443C36.7984 36.1443 36.8432 36.149 36.8875 36.1578C36.9318 36.1662 36.9745 36.1792 37.0162 36.1969C37.0578 36.2141 37.0974 36.2349 37.1349 36.2599C37.1724 36.2849 37.2073 36.3136 37.2391 36.3453C37.2708 36.3771 37.2995 36.412 37.3245 36.4495C37.3495 36.487 37.3703 36.5266 37.3875 36.5682C37.4052 36.6099 37.4182 36.6526 37.4266 36.6969C37.4354 36.7412 37.4401 36.786 37.4401 36.8307C37.4401 36.8761 37.4354 36.9203 37.4266 36.9646C37.4182 37.0089 37.4052 37.0516 37.3875 37.0932C37.3703 37.1349 37.3495 37.1745 37.3245 37.212C37.2995 37.2495 37.2708 37.2844 37.2391 37.3162C37.2073 37.3479 37.1724 37.3766 37.1349 37.4016C37.0974 37.4266 37.0578 37.4479 37.0162 37.4651C36.9745 37.4823 36.9318 37.4953 36.8875 37.5042C36.8432 37.513 36.7984 37.5172 36.7537 37.5172C35.4667 37.5172 34.8599 37.8604 34.1563 38.2651C33.3938 38.7005 32.5297 39.1938 30.8792 39.1938Z" fill="#2ECA6A"/>
</svg>
