<svg width="20" height="20" viewBox="0 0 20 20" fill="none" xmlns="http://www.w3.org/2000/svg">
<g clip-path="url(#clip0_43_6)">
<path fill-rule="evenodd" clip-rule="evenodd" d="M19.3533 9.92825C19.3533 13.5101 16.4399 16.4171 12.8645 16.4171L12.683 16.4146C9.18501 16.3183 6.37573 13.4494 6.37573 9.92825C6.37573 6.35292 9.28272 3.43945 12.8645 3.43945C16.4399 3.43945 19.3533 6.35292 19.3533 9.92825ZM11.5796 7.33266C11.3915 7.52733 11.3915 7.8323 11.5861 8.02047L13.5003 9.92818L11.5861 11.8359C11.3915 12.0241 11.3915 12.3355 11.5796 12.5237C11.7743 12.7184 12.0793 12.7184 12.2675 12.5237L14.5321 10.2721C14.6229 10.1812 14.6748 10.058 14.6748 9.92818C14.6748 9.79841 14.6229 9.67512 14.5321 9.58428L12.2675 7.33266C12.1766 7.23533 12.0533 7.18991 11.93 7.18991C11.8003 7.18991 11.677 7.23533 11.5796 7.33266Z" fill="#69B99D"/>
</g>
<defs>
<clipPath id="clip0_43_6">
<rect width="14" height="14" fill="white" transform="translate(6 3)"/>
</clipPath>
</defs>
</svg>
