<svg width="50" height="50" viewBox="0 0 50 50" fill="none" xmlns="http://www.w3.org/2000/svg">
<mask id="mask0_1_137" style="mask-type:luminance" maskUnits="userSpaceOnUse" x="6" y="5" width="38" height="40">
<path d="M6.59998 5H43.4V45H6.59998V5Z" fill="white"/>
</mask>
<g mask="url(#mask0_1_137)">
<path d="M20.6385 34.9495V37.6302C21.5015 37.812 22.0922 38.1755 22.0922 38.5844C22.0922 39.175 20.8656 39.6292 19.412 39.6292C17.9125 39.6292 16.7312 39.175 16.7312 38.5844C16.7312 38.1755 17.3219 37.812 18.1854 37.6302V33.95C17.9578 33.8594 17.7307 33.7229 17.4583 33.6323C9.37133 29.6338 6.59998 35.2224 6.59998 37.5849C6.59998 42.2187 16.2771 44.9901 25.2271 44.9901C34.1771 44.9901 43.3547 42.3094 43.3547 39.9927C43.4 37.812 31.6786 39.1292 20.6385 34.9495ZM35.2224 8.78072C35.2224 8.78072 33.7682 8.46249 30.8609 9.55312C29.4067 10.0984 26.7265 12.0521 24.4094 13.0969C22.6375 13.9146 20.775 14.051 19.9114 14.051V38.3573C19.9114 38.6297 19.6844 38.8568 19.412 38.8568C19.139 38.8568 18.912 38.6297 18.912 38.3573V5.96405C18.8666 5.87291 18.8213 5.73697 18.8213 5.64583C18.8213 5.32812 19.0937 5.00989 19.4573 5.00989C19.8208 5.00989 20.0026 5.28228 20.0026 5.64583C20.0026 5.78228 19.9573 5.87291 19.9114 5.96405V6.50937C20.6838 7.00885 22.3192 7.82655 25.2271 8.1901C26.9083 8.41718 28.862 8.14478 30.588 8.14478C33.1323 8.09947 35.2224 8.78072 35.2224 8.78072Z" fill="#2ECA6A"/>
</g>
</svg>
