<svg width="110" height="100" viewBox="0 0 110 100" fill="none" xmlns="http://www.w3.org/2000/svg">
<path d="M69.8843 1.99331C59.5127 -0.771029 48.4787 -0.657749 38.1774 2.31883C27.8762 5.29541 18.7704 11.0016 12.0116 18.7158C5.25285 26.43 1.14461 35.8058 0.20642 45.6575C-0.731767 55.5091 1.54224 65.3943 6.74087 74.0628C11.9395 82.7314 19.8293 89.794 29.4125 94.3576C38.9957 98.9211 49.8419 100.781 60.5795 99.7011C71.3171 98.6215 81.464 94.6512 89.7368 88.2924C98.0096 81.9335 104.037 73.4716 107.057 63.9768C111.106 51.2446 109.464 37.5614 102.493 25.9372C95.5219 14.3131 83.7922 5.70018 69.8843 1.99331ZM43.8221 81.6253L31.6311 49.2643L48.8244 65.8961L43.8221 81.6253ZM50.0753 61.9627L32.7698 45.2139L56.2943 42.4078L50.0753 61.9627ZM56.7218 41.0636L33.9559 43.7757L64.0241 18.1023L56.7225 41.0612L56.7218 41.0636ZM65.3718 18.4518L75.9305 55.0923L58.0667 41.422L65.3718 18.4518ZM45.167 81.9837L50.1693 66.2545L74.4277 60.6709L45.167 81.9837ZM51.42 62.3218L57.639 42.7669L75.8556 56.7041L51.42 62.3218Z" fill="#313131"/>
</svg>
