<svg width="109" height="100" viewBox="0 0 109 100" fill="none" xmlns="http://www.w3.org/2000/svg">
<path d="M107.362 62.0957C104.754 71.6866 99.1039 80.3526 91.1273 86.9978C83.1507 93.6431 73.2054 97.9692 62.549 99.4292C51.8926 100.889 41.0035 99.4175 31.2587 95.2003C21.5139 90.983 13.351 84.2095 7.80199 75.7363C2.25301 67.263 -0.432803 57.4705 0.0841537 47.5969C0.601111 37.7234 4.29762 28.2121 10.7063 20.2658C17.115 12.3195 25.948 6.29503 36.0885 2.95407C46.2291 -0.386885 57.2217 -0.894265 67.6765 1.49609C74.6197 3.08406 81.1539 5.91122 86.906 9.81611C92.6581 13.721 97.5154 18.6272 101.201 24.2544C104.886 29.8816 107.327 36.1198 108.384 42.6125C109.441 49.1053 109.094 55.7261 107.362 62.0957Z" fill="#313131"/>
<path d="M78.5202 42.8769C79.6053 36.2237 74.0839 32.6474 66.5334 30.2611L68.9832 21.2489L63.0033 19.8817L60.619 28.6567C59.0247 28.2973 57.4266 27.9525 55.8248 27.6221L58.2293 18.7896L52.2535 17.4224L49.8024 26.4315C48.5267 26.1683 47.2538 25.8939 45.9839 25.6082L45.9907 25.5803L37.7447 23.6909L36.1538 29.55C36.1538 29.55 40.5901 30.4829 40.497 30.5411C42.919 31.0987 43.3566 32.5662 43.283 33.7315L40.4936 43.9988C40.7051 44.0481 40.9129 44.1102 41.1155 44.1846C40.9129 44.1394 40.7036 44.0892 40.4835 44.0409L36.5732 58.4204C36.487 58.6712 36.3476 58.904 36.163 59.1052C35.9785 59.3065 35.7524 59.4724 35.4978 59.5933C35.2432 59.7141 34.965 59.7877 34.6794 59.8096C34.3937 59.8316 34.1061 59.8016 33.8331 59.7213C33.8925 59.8012 29.4866 58.7258 29.4866 58.7258L26.5175 65.0079L34.299 66.7877C35.7467 67.1204 37.1653 67.4691 38.5617 67.7968L36.0877 76.9125L42.0601 78.2797L44.5106 69.2613C46.1419 69.6677 47.726 70.0425 49.2757 70.3956L46.8334 79.3719L52.8133 80.7391L55.288 71.6432C65.4841 73.4137 73.1521 72.6994 76.379 64.2385C78.9794 57.4242 76.2494 53.4967 70.8846 50.9339C74.7915 50.1075 77.7342 47.7498 78.5195 42.8806L78.5202 42.8769ZM64.8581 60.4535C63.01 67.2678 50.508 63.5831 46.4546 62.6595L49.7382 50.5808C53.791 51.51 66.7893 53.3486 64.8581 60.4535ZM66.7076 42.7784C65.0195 48.9732 54.6155 45.8269 51.24 45.055L54.2171 34.1026C57.5926 34.8738 68.4632 36.3147 66.7076 42.7784Z" fill="#FBFBFB"/>
</svg>
