<svg width="28" height="28" viewBox="0 0 28 28" fill="none" xmlns="http://www.w3.org/2000/svg">
<path d="M0.750549 24.7668V17.6403C0.750549 14.9776 1.22183 12.5238 2.16439 10.2788C3.10696 8.03384 4.70408 5.76276 6.95575 3.46558L11.0402 6.67642C9.73107 7.98163 8.73615 9.20854 8.05541 10.3571C7.37467 11.5057 6.92957 12.6804 6.72012 13.8812H11.7471V24.7668H0.750549ZM16.0672 24.7668V17.6403C16.0672 14.9776 16.5385 12.5238 17.481 10.2788C18.4236 8.03384 20.0207 5.76276 22.2724 3.46558L26.3568 6.67642C25.0477 7.98163 24.0528 9.20854 23.3721 10.3571C22.6913 11.5057 22.2462 12.6804 22.0368 13.8812H27.0637V24.7668H16.0672Z" fill="#B5B5B5"/>
</svg>
