<svg width="50" height="50" viewBox="0 0 50 50" fill="none" xmlns="http://www.w3.org/2000/svg">
<path d="M39.6719 29.8422C37.1651 28.712 33.9031 28.0057 30.3719 27.812C30.4557 27.5688 30.4995 27.3219 30.4995 27.0703C30.4995 23.9365 24.1036 22.2411 18.0828 22.2411C12.062 22.2411 5.67084 23.9318 5.67084 27.0703C5.67084 27.9797 6.23125 29.2948 8.91042 30.3984C10.3495 30.9943 12.2078 31.4354 14.2604 31.6787C13.1479 32.6849 12.5698 33.8146 12.5698 35.0021C12.5698 37.0458 14.2958 38.9177 17.4297 40.2682C20.3781 41.5438 24.2891 42.2458 28.4339 42.2458C32.5786 42.2458 36.4849 41.5438 39.438 40.2682C42.5719 38.913 44.2979 37.0458 44.2979 35.0021C44.2979 32.9583 42.6516 31.1839 39.6719 29.8422ZM28.4297 40.8641C19.7646 40.8641 13.9469 37.8318 13.9469 35.0021C13.9469 33.5677 15.3375 32.4375 16.5026 31.7448C16.763 31.5901 16.8911 31.2854 16.8203 30.9901C16.75 30.6943 16.4938 30.4823 16.1896 30.4646C13.5583 30.3099 11.1573 29.8333 9.43125 29.1229C7.93959 28.5047 7.04792 27.7412 7.04792 27.0703C7.04792 25.6313 11.2458 23.6229 18.0828 23.6229C24.9203 23.6229 29.1182 25.6313 29.1182 27.0703C29.1182 27.3526 28.9594 27.6573 28.6458 27.9662C28.4469 28.1604 28.3896 28.4563 28.4911 28.712C28.5927 28.9682 28.8401 29.1406 29.1182 29.1448C32.9318 29.2198 36.476 29.913 39.1026 31.0958C41.5214 32.1859 42.912 33.612 42.912 34.9979C42.9161 37.8318 37.0943 40.8641 28.4297 40.8641Z" fill="#2ECA6A"/>
<mask id="mask0_1_160" style="mask-type:luminance" maskUnits="userSpaceOnUse" x="2" y="5" width="46" height="40">
<path d="M2.90051 5H47.0667V45H2.90051V5Z" fill="white"/>
</mask>
<g mask="url(#mask0_1_160)">
<path d="M44.2937 29.4891V26.3818H46.3635C46.5755 26.3818 46.7786 26.2844 46.9068 26.1125C47.0391 25.9448 47.0833 25.724 47.0302 25.5167L46.1917 22.2411H46.3635C46.5844 22.2411 46.7917 22.1354 46.9245 21.9542C47.0521 21.7734 47.0875 21.5438 47.0172 21.3318L44.2583 13.0557C44.1656 12.7729 43.9005 12.5833 43.6047 12.5833C43.3094 12.5833 43.0443 12.7729 42.9516 13.0557L40.1927 21.3318C40.1224 21.5438 40.1578 21.7734 40.2854 21.9542C40.4135 22.1354 40.6255 22.2411 40.8463 22.2411H41.0182L40.1797 25.5167C40.1266 25.724 40.1708 25.9401 40.3031 26.1125C40.4354 26.2844 40.6344 26.3818 40.8463 26.3818H42.9161V28.4604C42.3073 28.0677 41.6052 27.688 40.8062 27.326C39.5839 26.7745 38.2021 26.3109 36.7057 25.9448V23.6182H38.776C38.9922 23.6182 39.1953 23.5167 39.3276 23.3448C39.4557 23.1724 39.5 22.9474 39.4427 22.7401L36.6792 13.0865C36.5953 12.7906 36.326 12.5875 36.0172 12.5875C35.7083 12.5875 35.4391 12.7906 35.3552 13.0865L32.5963 22.7443C32.5391 22.9521 32.5786 23.1771 32.7109 23.349C32.8437 23.5214 33.0463 23.6229 33.263 23.6229H35.3328V25.6443C34.5516 25.4943 33.7526 25.3661 32.9276 25.2646C32.5786 24.3557 31.9651 23.5302 31.1042 22.8104C30.1995 22.0557 28.9943 21.4068 27.5292 20.8906C26.3635 20.4802 25.0349 20.1536 23.6094 19.9151V18.101H25.6797C25.9 18.101 26.1031 17.9948 26.2359 17.8229C26.3635 17.6464 26.4036 17.4214 26.3417 17.2094L25.5557 14.6536H25.6838C25.9047 14.6536 26.112 14.5474 26.2448 14.3667C26.3724 14.1854 26.4078 13.9563 26.337 13.7443L23.5698 5.4724C23.4771 5.18958 23.212 5 22.9161 5C22.6208 5 22.3557 5.18958 22.263 5.4724L19.5042 13.7484C19.4338 13.9604 19.4687 14.1901 19.5969 14.3708C19.725 14.5521 19.937 14.6578 20.1578 14.6578H20.2854L19.5 17.2135C19.4338 17.4214 19.4734 17.6505 19.6057 17.8271C19.7338 18.0036 19.9411 18.1052 20.162 18.1052H22.2323V19.725C20.9036 19.5661 19.513 19.487 18.0917 19.487C17.1562 19.487 16.2333 19.5224 15.3328 19.5927V18.1052H17.4031C17.6193 18.1052 17.8224 18.0036 17.9552 17.8318C18.0828 17.6594 18.1271 17.4344 18.0698 17.2271L15.3021 7.56875C15.2182 7.27344 14.949 7.07031 14.6401 7.07031C14.3312 7.07031 14.062 7.27344 13.9781 7.56875L11.2193 17.2271C11.162 17.4344 11.2016 17.6594 11.3338 17.8318C11.4661 18.0036 11.6693 18.1052 11.8854 18.1052H13.9557V19.725C12.0005 19.9594 10.1906 20.3521 8.65468 20.8948C7.18906 21.4115 5.98853 22.0557 5.07916 22.8151C3.28697 24.3026 2.91197 25.949 2.91197 27.0703C2.91197 28.0984 3.22968 29.6214 4.7526 31.0427C5.53853 31.7802 6.58437 32.4198 7.85989 32.9453C8.50468 33.2099 9.20624 33.4484 9.95676 33.6557C9.85937 34.1016 9.80676 34.5521 9.80676 34.9979C9.80676 36.8563 10.6542 40.3432 16.3307 42.7974C19.6193 44.2188 23.9141 45 28.425 45C32.9365 45 37.2354 44.2188 40.5193 42.7974C46.2047 40.3474 47.0521 36.8651 47.0521 35.0021C47.0521 33.6823 46.6198 31.5151 44.2937 29.4891ZM41.7333 25L42.5719 21.725C42.625 21.5172 42.5807 21.301 42.4484 21.1286C42.3161 20.9609 42.1172 20.8594 41.9057 20.8594H41.7995L43.6005 15.4526L45.4016 20.8594H45.2953C45.0839 20.8594 44.8807 20.9568 44.7526 21.1286C44.6203 21.2969 44.576 21.5172 44.6292 21.725L45.4677 25H41.7333ZM34.1724 22.2411L36.0172 15.788L37.8625 22.2458H34.1724V22.2411ZM21.0891 16.7234L21.8745 14.1677C21.9406 13.9604 21.901 13.7307 21.7687 13.5542C21.6406 13.3776 21.4333 13.2766 21.2125 13.2766H21.1068L22.912 7.86927L24.713 13.2766H24.6068C24.3865 13.2766 24.1833 13.3823 24.0505 13.5542C23.9229 13.7307 23.8828 13.9563 23.9448 14.1677L24.7307 16.7234H21.0891ZM12.7906 16.7234L14.6354 10.2661L16.4807 16.7234H12.7906ZM39.9812 41.5349C36.8604 42.8813 32.7599 43.6229 28.4297 43.6229C24.0995 43.6229 19.9984 42.8813 16.8823 41.5349C11.9297 39.3943 11.188 36.525 11.188 35.0021C11.188 34.4682 11.2807 33.925 11.462 33.3911C11.524 33.2057 11.5062 33.0073 11.4135 32.8349C11.3208 32.6672 11.162 32.5438 10.9719 32.4948C10.0276 32.2656 9.15312 31.9875 8.38541 31.6698C7.26406 31.2063 6.35937 30.6589 5.69739 30.0365C4.53645 28.9505 4.29374 27.8203 4.29374 27.0703C4.29374 26.2448 4.5802 25.0177 5.95781 23.8698C6.73906 23.2214 7.79843 22.6563 9.10468 22.1927C11.537 21.3365 14.724 20.8641 18.0828 20.8641C21.4422 20.8641 24.6333 21.3365 27.0609 22.1927C28.3719 22.6563 29.4312 23.2214 30.2125 23.8698C30.9984 24.5234 31.5104 25.2693 31.7401 26.0901C31.8151 26.3641 32.049 26.5583 32.3312 26.5891C35.324 26.9115 38.0562 27.6 40.237 28.5844C44.9646 30.7161 45.6708 33.5193 45.6708 35.0021C45.675 36.4854 44.9333 39.3943 39.9812 41.5349Z" fill="#2ECA6A"/>
</g>
</svg>
