<svg width="50" height="50" viewBox="0 0 50 50" fill="none" xmlns="http://www.w3.org/2000/svg">
<mask id="mask0_1_184" style="mask-type:luminance" maskUnits="userSpaceOnUse" x="0" y="5" width="49" height="40">
<path d="M0.799988 5.20001H48.9333V45H0.799988V5.20001Z" fill="white"/>
</mask>
<g mask="url(#mask0_1_184)">
<path d="M46.7984 34.2818C46.514 34.9802 46.1062 35.7208 45.6046 36.4604L44.1114 34.9672C44.0645 34.9208 44.014 34.876 43.963 34.8349C42.9796 34.0396 41.339 34.3391 40.1453 35.5338C39.8859 35.7932 39.6645 36.0786 39.4875 36.3781C39.4526 36.437 39.4182 36.4974 39.3875 36.5562C38.8567 37.5708 38.8755 38.6354 39.4375 39.3406C39.4583 39.3677 39.4796 39.3927 39.5015 39.4167C39.5255 39.4448 39.5515 39.4719 39.5786 39.499L41.0718 40.9922C40.5802 41.3266 40.0906 41.6177 39.6057 41.8615C38.1625 42.5885 36.8833 42.8396 36.0984 42.5516C35.927 42.488 35.7796 42.3969 35.6645 42.2807H35.6635C35.5427 42.1588 35.4515 42.0115 35.3875 41.8281C35.1208 41.074 35.3484 39.8562 36.0114 38.4865C36.6781 37.1109 37.7145 35.6979 39.013 34.401C39.5198 33.8932 40.0515 33.4208 40.5932 32.9937C42.1302 31.7844 43.752 30.9588 45.0437 30.7318C45.5979 30.6333 46.0802 30.6495 46.4416 30.7766C46.6234 30.8396 46.7703 30.9307 46.8927 31.0531C47.4385 31.5979 47.4031 32.8047 46.7984 34.2818ZM45.8953 39.5078C45.8198 39.8844 45.5828 40.2937 45.2442 40.6323C44.9057 40.9708 44.4958 41.2083 44.1192 41.2833C43.864 41.3344 43.6489 41.3036 43.5448 41.1995C43.313 40.9677 43.4192 40.1906 44.1114 39.5C44.5901 39.0208 45.1099 38.8229 45.4604 38.8229C45.6166 38.8229 45.7401 38.862 45.8109 38.9328C45.9151 39.037 45.9463 39.2526 45.8953 39.5078ZM40.7135 38.3682C40.7083 38.363 40.7031 38.3573 40.6984 38.351C40.6963 38.349 40.6942 38.3458 40.6932 38.3443C40.5661 38.188 40.5479 37.7953 40.8073 37.2995C40.8244 37.2661 40.8427 37.2344 40.8645 37.1984C40.9755 37.0089 41.1151 36.8307 41.2791 36.6667C41.9453 36.0005 42.7041 35.8766 42.9557 36.0818C42.9588 36.0838 42.9609 36.0854 42.9635 36.0875C42.9687 36.0917 42.9739 36.0958 42.9776 36.1005L44.3328 37.4547C43.8599 37.6448 43.3932 37.9505 42.9786 38.3672C42.5619 38.7828 42.2567 39.2484 42.0661 39.7208L40.7135 38.3682ZM32.8666 41.749C31.5708 41.9776 30.539 41.7911 29.9484 41.1995L29.9442 41.1963C29.1328 40.3802 29.0869 38.7589 29.8187 36.7469C30.6354 34.5 32.2906 32.0578 34.4802 29.8682C36.6692 27.6792 39.1119 26.0234 41.3583 25.2073C42.3088 24.862 43.1718 24.6896 43.9041 24.6896C44.7224 24.6896 45.377 24.9047 45.8078 25.3323L45.8109 25.3365C46.4119 25.9375 46.5979 26.9531 46.364 28.2578L45.7599 27.6542C44.7682 26.6625 43.114 26.5281 41.101 27.2766C39.2921 27.9474 37.3432 29.2703 35.6125 31.001C33.8823 32.7318 32.5588 34.6807 31.888 36.4891C31.1401 38.5021 31.2739 40.1568 32.2656 41.1484L32.8666 41.749ZM27.5526 34.4802C28.3698 32.2338 30.0255 29.7911 32.2145 27.6031C34.4031 25.4135 36.8453 23.7583 39.0916 22.9411C41.1067 22.2088 42.7302 22.2547 43.5448 23.0703L43.5698 23.0943C42.7312 23.138 41.8052 23.3396 40.8104 23.701C38.3489 24.5963 35.6979 26.3839 33.3463 28.7344C30.9958 31.0859 29.2083 33.737 28.3125 36.199C27.951 37.1932 27.75 38.1198 27.7057 38.9578L27.6817 38.9328C26.8666 38.1187 26.8203 36.4953 27.5526 34.4802ZM15.2604 30.5781H27.7427C27.0536 31.6542 26.5 32.7344 26.1041 33.7833H15.2604V30.5781ZM13.6578 41.7953C13.6578 42.6786 12.9385 43.3974 12.0552 43.3974C11.1718 43.3974 10.4531 42.6786 10.4531 41.7953V22.5661C10.4531 21.6828 11.1718 20.9641 12.0552 20.9641C12.9385 20.9641 13.6578 21.6828 13.6578 22.5661V41.7953ZM7.24788 37.7891C6.36454 37.7891 5.64579 37.0703 5.64579 36.187V28.175C5.64579 27.2917 6.36454 26.5724 7.24788 26.5724C8.13173 26.5724 8.85048 27.2917 8.85048 28.175V36.187C8.85048 37.0703 8.13173 37.7891 7.24788 37.7891ZM11.8619 15.5187C12.4552 13.9224 13.6468 12.1776 15.2182 10.6062C16.7895 9.03489 18.5338 7.84322 20.1302 7.25051C21.3073 6.81301 22.2994 6.75937 22.8713 7.08749C20.6864 8.06249 18.4036 9.68593 16.351 11.7391C14.3046 13.7859 12.6734 16.0865 11.7 18.262C11.3713 17.6901 11.4244 16.6963 11.8619 15.5187ZM12.9515 10.6062C12.8474 10.5021 12.8166 10.287 12.8677 10.0318C12.9427 9.6552 13.1802 9.24531 13.5187 8.90676C13.8573 8.56822 14.2666 8.33072 14.6432 8.25572C14.8984 8.20468 15.114 8.23645 15.2182 8.3401L15.264 8.38645C14.8635 8.72708 14.4682 9.08958 14.0854 9.47395C13.701 9.85624 13.339 10.2521 12.9979 10.6526L12.9515 10.6062ZM28.8145 8.33958L28.8395 8.36458C28.001 8.40833 27.075 8.60989 26.0802 8.97135C23.6187 9.86718 20.9687 11.6552 18.6171 14.0057C16.6823 15.9406 15.1317 18.0745 14.1442 20.1396C13.7948 19.8375 13.3802 19.6109 12.9234 19.4818C13.763 17.3312 15.3854 14.9719 17.4843 12.8729C19.6729 10.6833 22.1156 9.02812 24.3619 8.21145C26.377 7.47812 28.0005 7.52499 28.8145 8.33958ZM28.6671 19.5224L25.9823 16.8375C25.4916 16.3463 24.7541 16.1562 23.9593 16.3156C23.2713 16.4526 22.5812 16.8391 22.0161 17.4042C21.4515 17.9687 21.0651 18.6588 20.9276 19.3469C20.7682 20.1422 20.9588 20.8792 21.4494 21.3703L24.1343 24.0552C20.4619 26.8635 16.7526 27.912 15.2604 26.5068V22.5656C15.2604 22.3047 15.2281 22.051 15.1692 21.8088C16.0083 19.6213 17.6255 17.263 19.751 15.1385C21.939 12.9495 24.3817 11.2937 26.6281 10.4766C28.6432 9.74374 30.2666 9.79062 31.0807 10.6057C32.5453 12.0703 31.5015 15.8156 28.6671 19.5224ZM29.9833 27.6365L22.5833 20.2375C22.4791 20.1333 22.4479 19.9177 22.4989 19.6615C22.5739 19.2859 22.8104 18.8755 23.1489 18.537C23.4875 18.1984 23.8979 17.962 24.2734 17.887C24.5302 17.8359 24.7453 17.8667 24.8494 17.9708L32.2484 25.3708C31.8531 25.7213 31.4635 26.087 31.0807 26.4687C30.6994 26.851 30.3338 27.2406 29.9833 27.6365ZM15.2604 28.3755C15.8088 28.6 16.4338 28.7099 17.1177 28.7099C19.4026 28.7099 22.3427 27.4854 25.277 25.1979L28.9536 28.8734C28.9265 28.9073 28.9015 28.9417 28.8755 28.9755H15.2604V28.3755ZM36.0916 22.5656C36.0916 22.138 36.2588 21.7354 36.5599 21.4333C36.8635 21.1307 37.2661 20.9635 37.6937 20.9635C38.0942 20.9635 38.4671 21.1104 38.7526 21.362C38.6833 21.3849 38.614 21.4094 38.5442 21.4349C37.7406 21.7266 36.9177 22.1151 36.0916 22.5859V22.5656ZM34.7135 37.4995C34.475 37.962 34.2614 38.4396 34.0895 38.9312C33.9401 39.3578 33.7328 39.8896 33.7328 40.3474L33.3984 40.0141C32.8916 39.5073 32.8885 38.3974 33.3901 37.0464C33.9833 35.449 35.175 33.7047 36.7463 32.1344C38.3166 30.563 40.0614 29.3708 41.6588 28.7781C43.0099 28.2766 44.1192 28.2792 44.627 28.787L44.9625 29.1229C44.8974 29.1328 44.8323 29.1406 44.7656 29.1526C43.1989 29.4292 41.3651 30.3453 39.6015 31.7344C39.0109 32.1995 38.4307 32.7151 37.8791 33.2667C36.5458 34.6 35.4562 36.0583 34.7135 37.4995ZM2.44111 33.7828V30.5781H4.04319V33.7828H2.44111ZM48.0265 29.9198V29.9187L47.6906 29.5844C48.3656 27.2677 48.1052 25.3651 46.9448 24.2021C46.9416 24.1995 46.9375 24.1974 46.9349 24.1932L44.677 21.9359C43.7088 20.9677 42.2416 20.625 40.4458 20.9224C39.877 19.9672 38.8448 19.3609 37.6937 19.3609C36.8395 19.3609 36.0343 19.6937 35.4276 20.3005C34.8213 20.9062 34.489 21.7115 34.489 22.5656V23.6016C34.1526 23.8359 33.8182 24.0823 33.4854 24.3417L29.8088 20.6651C33.338 16.1365 34.338 11.5963 32.2145 9.47239L29.9484 7.20624C28.7796 6.03749 26.8864 5.78072 24.5651 6.45833L24.2307 6.12499C23.2401 5.13385 21.5854 4.99999 19.5724 5.74739C18.5843 6.1151 17.5526 6.67812 16.539 7.39479L16.351 7.20676C15.8599 6.71562 15.1229 6.52551 14.3286 6.68437C13.6395 6.82187 12.9494 7.20833 12.3849 7.77343C11.8208 8.33801 11.4343 9.0276 11.2963 9.71666C11.1369 10.5109 11.327 11.2479 11.8187 11.7385L12.0073 11.9271C11.2901 12.9406 10.7276 13.9719 10.3599 14.9604C9.61246 16.9734 9.74579 18.6281 10.7375 19.6182L10.7552 19.6375C9.63486 20.137 8.85048 21.2609 8.85048 22.5656V25.4C8.37861 25.1266 7.83173 24.9693 7.24788 24.9693C5.48069 24.9693 4.04319 26.4078 4.04319 28.1745V28.9755H1.63954C1.19736 28.9755 0.838501 29.3338 0.838501 29.7766V34.5838C0.838501 35.0266 1.19736 35.3849 1.63954 35.3849H4.04319V36.1865C4.04319 37.9531 5.48069 39.3911 7.24788 39.3911C7.83173 39.3911 8.37861 39.2338 8.85048 38.9604V41.7948C8.85048 43.5615 10.2885 44.9995 12.0552 44.9995C13.8218 44.9995 15.2604 43.5615 15.2604 41.7948V35.3849H25.6208C25.1859 37.3859 25.5005 39.0177 26.5479 40.0651L28.8057 42.3224C28.8093 42.3255 28.8114 42.3297 28.8145 42.3323C29.5557 43.0724 30.5942 43.4474 31.8489 43.4474C32.5661 43.4474 33.3531 43.324 34.1953 43.0786L34.5312 43.4141H34.5323C34.8125 43.6953 35.1552 43.9109 35.5463 44.0552C35.9302 44.1963 36.3609 44.2656 36.8296 44.2656C37.8489 44.2656 39.0479 43.9359 40.3265 43.2927C40.9557 42.9755 41.5906 42.5911 42.2234 42.1443L42.4109 42.3323L42.4119 42.3312C42.7895 42.7088 43.3119 42.9094 43.8953 42.9094C44.0703 42.9094 44.2505 42.8911 44.4338 42.8542C45.1229 42.7172 45.813 42.3297 46.3776 41.7656C46.9416 41.201 47.3281 40.5109 47.4666 39.8219C47.6255 39.0276 47.4354 38.2906 46.9437 37.7995L46.9448 37.799L46.7552 37.6094C47.3994 36.6969 47.9229 35.7667 48.2817 34.8875C49.1651 32.7312 49.0739 30.9677 48.0265 29.9198Z" fill="#2ECA6A"/>
</g>
</svg>
