<svg width="40" height="40" viewBox="0 0 40 40" fill="none" xmlns="http://www.w3.org/2000/svg">
<path d="M36.2616 7.46665C36.617 7.46665 36.9058 7.59999 37.128 7.86665C37.3501 8.13332 37.4612 8.44443 37.4612 8.79999V31.2C37.4612 31.5555 37.3501 31.8667 37.128 32.1333C36.9058 32.4 36.617 32.5333 36.2616 32.5333H3.73842C3.38297 32.5333 3.09417 32.4 2.87202 32.1333C2.64987 31.8667 2.53879 31.5555 2.53879 31.2V8.79999C2.53879 8.44443 2.64987 8.13332 2.87202 7.86665C3.09417 7.59999 3.38297 7.46665 3.73842 7.46665H36.2616ZM3.73842 4.93332C2.67208 4.93332 1.78347 5.3111 1.07258 6.06665C0.361693 6.82221 0.00624847 7.73332 0.00624847 8.79999V31.2C0.00624847 32.2667 0.361693 33.1778 1.07258 33.9333C1.78347 34.6889 2.67208 35.0667 3.73842 35.0667H36.2616C37.3279 34.9778 38.2165 34.5778 38.9274 33.8667C39.6383 33.1555 39.9938 32.2667 39.9938 31.2V8.79999C39.9938 7.73332 39.6383 6.82221 38.9274 6.06665C38.2165 5.3111 37.3279 4.97776 36.2616 5.06665H3.73842V4.93332ZM17.4675 13.7333C17.4675 13.3778 17.6008 13.0889 17.8673 12.8667C18.1339 12.6444 18.4449 12.5333 18.8004 12.5333H31.1965C31.5519 12.5333 31.863 12.6444 32.1295 12.8667C32.3961 13.0889 32.5294 13.3778 32.5294 13.7333C32.5294 14.0889 32.3961 14.4 32.1295 14.6667C31.863 14.9333 31.5519 15.0667 31.1965 15.0667H18.8004C18.4449 14.9778 18.1339 14.8222 17.8673 14.6C17.6008 14.3778 17.4675 14.0889 17.4675 13.7333ZM13.7353 11.6C14.0019 11.8667 14.1352 12.1778 14.1352 12.5333C14.1352 12.8889 14.0019 13.1555 13.7353 13.3333L10.0031 17.2C9.73654 17.3778 9.44774 17.4667 9.13673 17.4667C8.82572 17.4667 8.53692 17.3778 8.27033 17.2L6.93742 15.8667C6.75969 15.6 6.67083 15.3111 6.67083 15C6.67083 14.6889 6.78191 14.4 7.00406 14.1333C7.22621 13.8667 7.51501 13.7333 7.87046 13.7333C8.2259 13.7333 8.53692 13.8667 8.8035 14.1333L9.07008 14.5333L12.0025 11.6C12.2691 11.3333 12.5579 11.2 12.8689 11.2C13.1799 11.2 13.4687 11.3333 13.7353 11.6ZM17.4675 23.7333C17.4675 23.3778 17.6008 23.0889 17.8673 22.8667C18.1339 22.6444 18.4449 22.5333 18.8004 22.5333H31.1965C31.5519 22.5333 31.863 22.6444 32.1295 22.8667C32.3961 23.0889 32.5294 23.3778 32.5294 23.7333C32.5294 24.0889 32.3961 24.3778 32.1295 24.6C31.863 24.8222 31.5519 24.9778 31.1965 25.0667H18.8004C18.4449 25.0667 18.1339 24.9333 17.8673 24.6667C17.6008 24.4 17.4675 24.0889 17.4675 23.7333ZM13.7353 21.6C14.0019 21.8667 14.1352 22.1778 14.1352 22.5333C14.1352 22.8889 14.0019 23.1555 13.7353 23.3333L10.0031 27.2C9.73654 27.3778 9.44774 27.4667 9.13673 27.4667C8.82572 27.4667 8.53692 27.3778 8.27033 27.2L6.93742 25.8667C6.75969 25.6 6.67083 25.3111 6.67083 25C6.67083 24.6889 6.78191 24.4 7.00406 24.1333C7.22621 23.8667 7.51501 23.7333 7.87046 23.7333C8.2259 23.7333 8.53692 23.8667 8.8035 24.1333L9.07008 24.5333L12.0025 21.6C12.2691 21.3333 12.5579 21.2 12.8689 21.2C13.1799 21.2 13.4687 21.3333 13.7353 21.6Z" fill="black"/>
</svg>
