<svg width="50" height="50" viewBox="0 0 50 50" fill="none" xmlns="http://www.w3.org/2000/svg">
<path d="M22.8766 13.3979L24.4448 14.9667C24.5979 15.1198 24.799 15.1964 24.9995 15.1964C25.2 15.1964 25.401 15.1198 25.5542 14.9667L27.1224 13.3979C27.4292 13.0917 27.4292 12.5953 27.1224 12.2885L25.5542 10.7203C25.2479 10.4141 24.751 10.4141 24.4448 10.7203L22.8766 12.2885C22.5698 12.5953 22.5698 13.0917 22.8766 13.3979ZM24.9995 12.3839L25.4589 12.8432L24.9995 13.3026L24.5401 12.8432L24.9995 12.3839Z" fill="#2ECA6A"/>
<mask id="mask0_1_172" style="mask-type:luminance" maskUnits="userSpaceOnUse" x="1" y="5" width="48" height="40">
<path d="M1.47083 5H48.5333V45H1.47083V5Z" fill="white"/>
</mask>
<g mask="url(#mask0_1_172)">
<path d="M47.7443 43.4307H46.1755V39.3229L46.7495 40.0115C46.9047 40.1979 47.1276 40.2938 47.3526 40.2938C47.5292 40.2938 47.7073 40.2344 47.8542 40.112C48.187 39.8349 48.2318 39.3401 47.9547 39.0073L47.0656 37.9411H47.7443C48.1771 37.9411 48.5286 37.5896 48.5286 37.1568C48.5286 36.7234 48.1771 36.3724 47.7443 36.3724H47.0656L47.9547 35.3057C48.2318 34.9729 48.187 34.4786 47.8542 34.201C47.5214 33.9234 47.0266 33.9688 46.7495 34.3016L46.1755 34.9901V34.0193C46.1755 33.5865 45.8245 33.2349 45.3911 33.2349C44.9578 33.2349 44.6068 33.5865 44.6068 34.0193V34.9901L44.0328 34.3016C43.7557 33.9688 43.2609 33.924 42.9281 34.201C42.5958 34.4786 42.5505 34.9729 42.8281 35.3057L43.7167 36.3724H43.0385C42.6052 36.3724 42.2542 36.7234 42.2542 37.1568C42.2542 37.5896 42.6052 37.9411 43.0385 37.9411H43.7167L42.8281 39.0073C42.5505 39.3401 42.5958 39.8349 42.9281 40.112C43.075 40.2344 43.2531 40.2938 43.4302 40.2938C43.6547 40.2938 43.8776 40.1979 44.0328 40.0115L44.6068 39.3229V43.4307H43.0385V41.0781C43.0385 40.6448 42.687 40.2938 42.2542 40.2938H41.4698V33.2349C41.9031 33.2349 42.2542 32.8839 42.2542 32.451V29.3135C42.2542 28.8807 41.9031 28.5292 41.4698 28.5292V23.0391H42.2542C42.687 23.0391 43.0385 22.688 43.0385 22.2552V19.1177C43.0385 18.6849 42.687 18.3333 42.2542 18.3333H38.1245C37.4625 14.6094 35.2589 11.3589 32.0182 9.34896C30.7307 6.77396 28.0693 5.00052 24.9995 5.00052C21.9323 5.00052 19.2724 6.77083 17.9838 9.34323C14.8057 11.3635 12.5401 14.6562 11.875 18.3333H7.74479C7.31197 18.3333 6.96041 18.6849 6.96041 19.1177V22.2552C6.96041 22.688 7.31197 23.0391 7.74479 23.0391H8.52916V28.5292C8.09583 28.5292 7.74479 28.8807 7.74479 29.3135V32.451C7.74479 32.8839 8.09583 33.2349 8.52916 33.2349V40.2938H7.74479C7.31197 40.2938 6.96041 40.6448 6.96041 41.0781V43.4307H5.39218V39.3229L5.96614 40.0115C6.12135 40.1979 6.34426 40.2938 6.56874 40.2938C6.74583 40.2938 6.92395 40.2344 7.07083 40.112C7.40312 39.8349 7.44843 39.3401 7.17083 39.0073L6.28229 37.9411H6.96041C7.39374 37.9411 7.74479 37.5896 7.74479 37.1568C7.74479 36.7234 7.39374 36.3724 6.96041 36.3724H6.28229L7.17083 35.3057C7.44843 34.9729 7.40312 34.4786 7.07083 34.201C6.73802 33.9234 6.24322 33.9688 5.96614 34.3016L5.39218 34.9901V34.0193C5.39218 33.5865 5.04114 33.2349 4.60781 33.2349C4.17447 33.2349 3.82343 33.5865 3.82343 34.0193V34.9901L3.24947 34.3016C2.97239 33.9688 2.4776 33.924 2.14479 34.201C1.81197 34.4786 1.76718 34.9729 2.04426 35.3057L2.93333 36.3724H2.25468C1.82187 36.3724 1.47031 36.7234 1.47031 37.1568C1.47031 37.5896 1.82187 37.9411 2.25468 37.9411H2.93333L2.04426 39.0073C1.76718 39.3401 1.81197 39.8349 2.14479 40.112C2.29166 40.2344 2.46979 40.2938 2.64635 40.2938C2.87135 40.2938 3.09426 40.1979 3.24947 40.0115L3.82343 39.3229V43.4307H2.25468C1.82187 43.4307 1.47083 43.7823 1.47083 44.2151C1.47083 44.6484 1.82187 44.9995 2.25468 44.9995H47.7443C48.1771 44.9995 48.5286 44.6484 48.5286 44.2151C48.5286 43.7823 48.1771 43.4307 47.7443 43.4307ZM38.3323 40.2938V37.549C38.3323 36.9 38.8604 36.3724 39.5089 36.3724H39.901V40.2938H38.3323ZM39.901 34.8036H39.5089C37.9953 34.8036 36.7641 36.0349 36.7641 37.549V40.2938H35.2297V33.2349H39.901V34.8036ZM21.0781 40.2938V36.3724C21.0781 34.4786 22.4276 32.8943 24.2151 32.5297V40.2938H21.0781ZM25.7838 32.5297C27.5714 32.8943 28.9208 34.4786 28.9208 36.3724V40.2938H25.7838V32.5297ZM24.9995 30.8823C21.9724 30.8823 19.5094 33.3448 19.5094 36.3724V40.2938H16.4068V19.9021H21.5833C22.0026 20.1057 22.4427 20.2714 22.8995 20.3984C21.3562 21.1714 20.2937 22.7677 20.2937 24.6078H19.5094C19.076 24.6078 18.725 24.9589 18.725 25.3922V28.5292C18.725 28.9625 19.076 29.3135 19.5094 29.3135H30.4896C30.9229 29.3135 31.274 28.9625 31.274 28.5292V25.3922C31.274 24.9589 30.9229 24.6078 30.4896 24.6078H29.7052C29.7052 22.7677 28.6427 21.1714 27.0995 20.3984C27.5562 20.2714 27.9963 20.1057 28.4156 19.9021H33.6609V40.2938H30.4896V36.3724C30.4896 33.3448 28.0266 30.8823 24.9995 30.8823ZM9.31354 31.6667V30.0979H14.838V31.6667H9.31354ZM29.7052 26.1766V27.7448H20.2937V26.1766H29.7052ZM21.8625 24.6078C21.8625 22.8781 23.2698 21.4708 24.9995 21.4708C26.7292 21.4708 28.1365 22.8781 28.1365 24.6078H21.8625ZM24.9995 9.70625C26.7292 9.70625 28.1365 11.1135 28.1365 12.8432C28.1365 14.5734 26.7292 15.9807 24.9995 15.9807C23.2698 15.9807 21.8625 14.5734 21.8625 12.8432C21.8625 11.1135 23.2698 9.70625 24.9995 9.70625ZM21.976 18.3391L22.9078 17.0568C23.3141 17.2594 23.7531 17.4047 24.2151 17.4828V19.0672C23.412 18.9661 22.6557 18.7146 21.976 18.3391ZM25.7838 17.4828C26.2458 17.4047 26.6854 17.2594 27.0911 17.0568L28.0229 18.3391C27.3432 18.7146 26.587 18.9661 25.7838 19.0672V17.4828ZM29.2906 17.4151L28.3594 16.1339C28.6802 15.8062 28.9536 15.4318 29.1682 15.0224L30.676 15.5125C30.3365 16.2318 29.8641 16.8766 29.2906 17.4151ZM31.274 12.8432C31.274 13.2458 31.2344 13.6391 31.1615 14.0208L29.6547 13.5312C29.6875 13.3068 29.7052 13.0771 29.7052 12.8432C29.7052 12.6099 29.6875 12.3802 29.6547 12.1557L31.1615 11.6661C31.2344 12.0474 31.274 12.4406 31.274 12.8432ZM27.0911 8.62969C26.6854 8.42708 26.2458 8.28229 25.7838 8.20416V6.61979C26.587 6.72031 27.3432 6.97239 28.0229 7.34791L27.0911 8.62969ZM24.2151 8.20416C23.7531 8.28229 23.3141 8.42708 22.9078 8.62969L21.976 7.34791C22.6557 6.97239 23.412 6.72031 24.2151 6.61979V8.20416ZM20.3443 13.5312L18.8375 14.0208C18.7646 13.6391 18.725 13.2458 18.725 12.8432C18.725 12.4406 18.7646 12.0474 18.8375 11.6661L20.3443 12.1557C20.3115 12.3802 20.2937 12.6099 20.2937 12.8432C20.2937 13.0771 20.3115 13.3068 20.3443 13.5312ZM20.8307 15.0224C21.0458 15.4318 21.3187 15.8062 21.6396 16.1339L20.7088 17.4151C20.1349 16.8766 19.6625 16.2318 19.3229 15.5125L20.8307 15.0224ZM40.6854 30.0979V31.6667H35.2297V30.0979H40.6854ZM39.901 28.5292H35.2297V23.0391H39.901V28.5292ZM41.4698 21.4708H35.2297V19.9021H41.4698V21.4708ZM36.5281 18.3333H30.5932C31.4292 17.4818 32.0719 16.4411 32.4521 15.2823C32.4542 15.2771 32.4568 15.2724 32.4588 15.2672C32.4604 15.2615 32.4615 15.2557 32.463 15.25C32.7083 14.4911 32.8427 13.6828 32.8427 12.8432C32.8427 12.5099 32.8193 12.1812 32.7786 11.8589C34.6984 13.5464 36.0177 15.8094 36.5281 18.3333ZM30.676 10.1745L29.1682 10.6641C28.9536 10.2547 28.6802 9.88073 28.3594 9.55312L29.2906 8.27187C29.8641 8.81041 30.3365 9.45469 30.676 10.1745ZM20.7088 8.27187L21.6396 9.55312C21.3187 9.88073 21.0458 10.2547 20.8307 10.6641L19.3229 10.1745C19.6625 9.45469 20.1349 8.81041 20.7088 8.27187ZM17.2203 11.8594C17.1797 12.1823 17.1568 12.5099 17.1568 12.8432C17.1568 13.6828 17.2906 14.4911 17.5359 15.25C17.5375 15.2557 17.5385 15.2615 17.5406 15.2672C17.5422 15.2724 17.5448 15.2771 17.5469 15.2823C17.9271 16.4411 18.5698 17.4818 19.4057 18.3333H13.4708C13.9807 15.8135 15.2979 13.55 17.2203 11.8594ZM8.52916 19.9021H14.838V21.4708H8.52916V19.9021ZM10.0979 23.0391H14.838V28.5292H10.0979V23.0391ZM14.838 33.2349V40.2938H13.2349V37.549C13.2349 36.0349 12.0036 34.8036 10.4901 34.8036H10.0979V33.2349H14.838ZM10.0979 36.3724H10.4901C11.1385 36.3724 11.6667 36.9 11.6667 37.549V40.2938H10.0979V36.3724ZM8.52916 43.4307V41.8625H41.4698V43.4307H8.52916Z" fill="#2ECA6A"/>
</g>
</svg>
