<svg width="14" height="14" viewBox="0 0 14 14" fill="none" xmlns="http://www.w3.org/2000/svg">
<path d="M3.08 0C3.20444 0 3.30556 0.0388889 3.38333 0.116667C3.46111 0.194445 3.5 0.295555 3.5 0.42V0.886666H10.5V0.42C10.5 0.295555 10.5389 0.194445 10.6167 0.116667C10.6944 0.0388889 10.7956 0 10.92 0C11.0444 0 11.1533 0.0388889 11.2467 0.116667C11.34 0.194445 11.3867 0.295555 11.3867 0.42V0.886666H12.2733C12.74 0.886666 13.1444 1.05778 13.4867 1.4C13.8289 1.74222 14 2.14667 14 2.61333V12.2267C14 12.7244 13.8289 13.1444 13.4867 13.4867C13.1444 13.8289 12.7244 14 12.2267 14H1.77333C1.27556 14 0.855556 13.8289 0.513333 13.4867C0.171111 13.1444 0 12.74 0 12.2733V2.61333C0 2.14667 0.171111 1.74222 0.513333 1.4C0.855556 1.05778 1.27556 0.886666 1.77333 0.886666H2.61333V0.42C2.61333 0.295555 2.66 0.194445 2.75333 0.116667C2.84667 0.0388889 2.95556 0 3.08 0ZM1.77333 1.72667C1.52444 1.72667 1.31444 1.81222 1.14333 1.98333C0.972222 2.15444 0.886667 2.36444 0.886667 2.61333V3.5H13.1133V2.61333C13.1133 2.36444 13.0278 2.15444 12.8567 1.98333C12.6856 1.81222 12.4911 1.72667 12.2733 1.72667H1.77333ZM13.1133 4.38667H0.886667V12.2267C0.886667 12.4756 0.972222 12.6856 1.14333 12.8567C1.31444 13.0278 1.52444 13.1133 1.77333 13.1133H12.2733C12.4911 13.1133 12.6856 13.0278 12.8567 12.8567C13.0278 12.6856 13.1133 12.4756 13.1133 12.2267V4.38667ZM9.61333 6.58C9.61333 6.45556 9.66 6.34667 9.75333 6.25333C9.84667 6.16 9.95556 6.11333 10.08 6.11333H10.92C11.0444 6.11333 11.1533 6.16 11.2467 6.25333C11.34 6.34667 11.3867 6.45556 11.3867 6.58V7.42C11.3867 7.54444 11.34 7.65333 11.2467 7.74667C11.1533 7.84 11.0444 7.88667 10.92 7.88667H10.08C9.95556 7.88667 9.84667 7.84 9.75333 7.74667C9.66 7.65333 9.61333 7.54444 9.61333 7.42V6.58ZM7 6.58C7 6.45556 7.03889 6.34667 7.11667 6.25333C7.19444 6.16 7.29556 6.11333 7.42 6.11333H8.30667C8.43111 6.11333 8.54 6.16 8.63333 6.25333C8.72667 6.34667 8.77333 6.45556 8.77333 6.58V7.42C8.77333 7.54444 8.72667 7.65333 8.63333 7.74667C8.54 7.84 8.43111 7.88667 8.30667 7.88667H7.42C7.29556 7.88667 7.19444 7.84 7.11667 7.74667C7.03889 7.65333 7 7.54444 7 7.42V6.58ZM5.27333 9.19333C5.24222 9.06889 5.27333 8.96 5.36667 8.86667C5.46 8.77333 5.56889 8.72667 5.69333 8.72667H6.58C6.70444 8.75778 6.80556 8.81222 6.88333 8.89C6.96111 8.96778 7 9.06889 7 9.19333V10.08C7 10.2044 6.96111 10.3056 6.88333 10.3833C6.80556 10.4611 6.70444 10.5 6.58 10.5H5.69333C5.56889 10.5 5.46 10.4611 5.36667 10.3833C5.27333 10.3056 5.22667 10.2044 5.22667 10.08V9.19333H5.27333ZM2.61333 9.19333C2.61333 9.06889 2.66 8.96 2.75333 8.86667C2.84667 8.77333 2.95556 8.72667 3.08 8.72667H3.92C4.04444 8.75778 4.15333 8.81222 4.24667 8.89C4.34 8.96778 4.38667 9.06889 4.38667 9.19333V10.08C4.38667 10.2044 4.34 10.3056 4.24667 10.3833C4.15333 10.4611 4.04444 10.5 3.92 10.5H3.08C2.95556 10.5 2.84667 10.4611 2.75333 10.3833C2.66 10.3056 2.61333 10.2044 2.61333 10.08V9.19333Z" fill="black"/>
</svg>
