<svg width="50" height="50" viewBox="0 0 50 50" fill="none" xmlns="http://www.w3.org/2000/svg">
<g clip-path="url(#clip0_1_148)">
<mask id="mask0_1_148" style="mask-type:luminance" maskUnits="userSpaceOnUse" x="25" y="5" width="25" height="40">
<path d="M25.7333 5H49.5844V45H25.7333V5Z" fill="white"/>
</mask>
<g mask="url(#mask0_1_148)">
<path d="M47.8786 10.0286C47.6865 9.95208 47.4562 9.91354 47.2646 9.91354C47.0724 9.91354 46.8422 9.95208 46.65 10.0286C46.2661 10.2208 44.9609 10.8734 44.9609 12.1786V16.363C41.9667 15.9021 39.9323 14.1745 37.8208 12.2938C35.2104 10.0672 32.2932 7.49531 27.3026 7.2651V5.76771C27.3026 5.34531 26.9573 5 26.5349 5C26.1125 5 25.7672 5.34531 25.7672 5.76771V38.474C25.7672 38.8578 26.0359 39.1651 26.4198 39.2417L44.9609 42.4281V43.4646C44.9609 44.3089 45.6521 45 46.4963 45H48.0323C48.8766 45 49.5677 44.3089 49.5677 43.4646V12.1786C49.5677 10.8734 48.301 10.1823 47.8786 10.0286ZM29.6057 38.2052L27.3026 37.8214V13.7526C28.1474 13.7906 28.9151 13.9057 29.6057 14.0979V38.2052ZM33.4448 15.9406V38.8578L31.1417 38.474C31.1417 38.4359 31.1417 38.3974 31.1417 38.3589V14.5969C31.9859 14.9422 32.7536 15.4031 33.4448 15.8635C33.4448 15.9021 33.4448 15.9406 33.4448 15.9406ZM37.2833 39.5104L34.9802 39.1266V17.0536C35.5562 17.5146 36.0937 18.0521 36.6693 18.551C36.8615 18.7427 37.0917 18.9349 37.2833 19.0885V39.5104ZM41.1224 40.163L38.8193 39.7792V20.4318C39.5484 21.0078 40.2776 21.5453 41.1224 22.0057V40.163ZM44.9609 23.2724V40.8542L42.6578 40.4703V22.6969C43.387 22.9271 44.1167 23.1188 44.9609 23.2724ZM44.9609 21.6984C41.9286 21.238 39.8557 19.3953 37.7057 17.4375C35.1338 15.0958 32.2161 12.4854 27.3026 12.2167V8.80052C31.6792 9.03073 34.174 11.1802 36.7844 13.4453C39.0495 15.4031 41.3911 17.4375 44.9609 17.8984V21.6984ZM48.0323 43.3875H46.4963V12.1786C46.4963 11.7563 47.2646 11.4109 47.2646 11.4109C47.2646 11.4109 48.0323 11.7563 48.0323 12.1786V43.3875Z" fill="#2ECA6A"/>
</g>
<path d="M1.96666 44.9235H3.50208C4.34687 44.9235 5.03801 44.2323 5.03801 43.3875V43.0037H23.4641C23.8865 43.0037 24.2318 42.6583 24.2318 42.236V7.30314C24.2318 6.88126 23.8865 6.53543 23.4641 6.53543C23.0417 6.53543 22.6964 6.88126 22.6964 7.30314V8.41668C17.8208 8.60835 15.0187 10.7198 12.3318 12.7927C10.1818 14.4432 8.10885 15.9787 5.03801 16.4011V12.1787C5.03801 10.8735 3.77083 10.1823 3.34895 10.0287C3.15676 9.9521 2.92656 9.91356 2.73437 9.91356C2.5427 9.91356 2.31249 9.9521 2.12031 10.0287C1.73645 10.2208 0.431244 10.8735 0.431244 12.1787V43.3875C0.431244 44.2323 1.12239 44.9235 1.96666 44.9235ZM11.1797 41.5068H8.87656V22.1594C9.72135 21.7755 10.4505 21.3146 11.1797 20.8156V41.5068ZM15.0187 41.5068H12.7156V19.7026C12.9073 19.549 13.0609 19.4339 13.2526 19.2802C13.8286 18.8198 14.4047 18.3974 15.0187 17.975V41.5068ZM18.8573 41.5068H16.5542V17.0151C17.2833 16.5932 18.013 16.2474 18.8573 15.9406V41.5068ZM22.6964 41.5068H20.3927V15.5568C21.0838 15.4031 21.8516 15.3261 22.6964 15.288V41.5068ZM5.03801 17.8985C8.60781 17.4761 10.988 15.7104 13.2526 13.9828C15.863 11.9865 18.3198 10.1438 22.6964 9.9521V13.7526C17.8208 13.9443 15.0187 16.0557 12.3318 18.1287C10.1818 19.7792 8.10885 21.3146 5.03801 21.737V17.8985ZM5.03801 23.2724C5.88229 23.1573 6.61197 23.0037 7.34114 22.7735V41.5068H5.03801V23.2724ZM1.96666 12.1787C1.96666 11.7563 2.73437 11.411 2.73437 11.411C2.73437 11.411 3.50208 11.7563 3.50208 12.1787V43.4261H1.96666V12.1787Z" fill="#2ECA6A"/>
</g>
<defs>
<clipPath id="clip0_1_148">
<rect width="50" height="50" fill="white"/>
</clipPath>
</defs>
</svg>
