<svg width="50" height="50" viewBox="0 0 50 50" fill="none" xmlns="http://www.w3.org/2000/svg">
<path fill-rule="evenodd" clip-rule="evenodd" d="M8.61458 33.6682C7.60208 33.6682 6.69739 33.2229 6.00885 32.3656C4.2401 30.1375 1.80989 30.7453 1.70833 30.7724C1.24271 30.9005 0.837497 30.401 1.06718 29.9687C3.38958 25.5333 7.12968 25.5942 7.29843 25.601C11.4432 25.7291 13.0771 27.3359 12.2333 31.3729C11.9969 32.5208 10.188 33.6682 8.61458 33.6682Z" fill="#2ECA6A"/>
<path fill-rule="evenodd" clip-rule="evenodd" d="M13.5432 34.7417C13.3 34.7417 13.0771 34.5797 13.0031 34.3365C12.4021 32.2505 11.1125 30.7854 9.16823 29.9755C7.69011 29.3609 6.35313 29.3813 6.33959 29.3813C6.03594 29.3813 5.77917 29.1385 5.7724 28.8276C5.76563 28.5172 6.00886 28.2609 6.31928 28.2542C6.38021 28.2542 7.86563 28.2271 9.5599 28.9224C11.1396 29.5703 13.2057 30.9745 14.0833 34.0193C14.1912 34.3771 13.9214 34.7417 13.5432 34.7417Z" fill="#2ECA6A"/>
<path fill-rule="evenodd" clip-rule="evenodd" d="M13.5432 38.5833C13.2323 38.5833 12.9828 38.3333 12.9828 38.0229V16.3791C12.9828 16.0682 13.2323 15.812 13.5432 15.812C13.8536 15.812 14.1031 16.0682 14.1031 16.3791V38.0229C14.1031 38.3333 13.8536 38.5833 13.5432 38.5833Z" fill="#2ECA6A"/>
<path fill-rule="evenodd" clip-rule="evenodd" d="M18.4714 28.2068C16.9052 28.2068 15.0958 27.0521 14.8526 25.9047C14.0156 21.8813 15.6427 20.261 19.7943 20.1323C19.95 20.1255 23.6964 20.0584 26.0255 24.5005C26.2484 24.9391 25.85 25.4323 25.3776 25.3104C25.2766 25.2834 22.8458 24.6761 21.0771 26.8969C20.3953 27.7542 19.4906 28.2068 18.4714 28.2068Z" fill="#2ECA6A"/>
<path fill-rule="evenodd" clip-rule="evenodd" d="M13.5432 29.2734C13.1719 29.2734 12.9016 28.9156 13.0031 28.551C13.8807 25.5062 15.9531 24.1021 17.5328 23.4542C19.2276 22.7588 20.7057 22.7854 20.7667 22.7854C21.0771 22.7922 21.3271 23.049 21.3203 23.3594C21.3135 23.6698 21.05 23.913 20.7464 23.9062C20.7193 23.9062 19.3964 23.8995 17.9177 24.5073C15.9802 25.3172 14.6906 26.7823 14.0833 28.8615C14.0156 29.1115 13.7859 29.2734 13.5432 29.2734Z" fill="#2ECA6A"/>
<path fill-rule="evenodd" clip-rule="evenodd" d="M8.61458 23.2651C7.60208 23.2651 6.69739 22.8193 6.00885 21.9552C4.21978 19.714 1.73541 20.362 1.70833 20.3687C1.24947 20.4969 0.830722 20.0042 1.06718 19.5656C3.39635 15.1234 7.13645 15.1906 7.29843 15.1906C11.45 15.3187 13.0703 16.939 12.2333 20.963C11.9969 22.1104 10.1812 23.2651 8.61458 23.2651Z" fill="#2ECA6A"/>
<path fill-rule="evenodd" clip-rule="evenodd" d="M13.5432 24.3318C13.3 24.3318 13.0771 24.1766 13.0031 23.9266C11.5583 18.924 6.39375 18.9714 6.34636 18.9714C6.03594 18.9781 5.77917 18.7281 5.7724 18.4177C5.76563 18.1073 6.00886 17.8505 6.31928 17.8438C6.38021 17.8438 7.86563 17.8234 9.5599 18.5125C11.1396 19.1604 13.2057 20.5646 14.0833 23.6161C14.1912 23.9807 13.9146 24.3318 13.5432 24.3318Z" fill="#2ECA6A"/>
<path fill-rule="evenodd" clip-rule="evenodd" d="M18.4714 18.9307C16.9052 18.9307 15.0958 17.7765 14.8526 16.6286C14.0156 12.6052 15.6427 10.9781 19.7943 10.8568C19.9568 10.85 23.6964 10.789 26.0255 15.2245C26.2484 15.6635 25.85 16.1562 25.3776 16.0344C25.2766 16.0078 22.8458 15.4 21.0771 17.6213C20.3953 18.4786 19.4906 18.9307 18.4714 18.9307Z" fill="#2ECA6A"/>
<path fill-rule="evenodd" clip-rule="evenodd" d="M13.5432 19.9974C13.1719 19.9974 12.9016 19.6396 13.0031 19.275C13.8807 16.2302 15.9531 14.8261 17.5328 14.1781C19.2276 13.4828 20.7057 13.5099 20.7667 13.5099C21.0771 13.5167 21.3271 13.7729 21.3203 14.0833C21.3135 14.3943 21.05 14.637 20.7464 14.637C20.7193 14.6302 19.3964 14.6234 17.9177 15.2313C15.9802 16.0412 14.6906 17.5063 14.0833 19.5922C14.0156 19.8354 13.7859 19.9974 13.5432 19.9974Z" fill="#2ECA6A"/>
<path fill-rule="evenodd" clip-rule="evenodd" d="M10.2349 14.5563C8.69583 14.5563 7.48073 13.7729 6.94062 12.3214C5.93437 9.63439 3.36927 9.47919 3.34219 9.47919C2.86302 9.45887 2.62656 8.86512 2.9776 8.51408C6.56927 5.00992 10.1068 6.23231 10.2552 6.28596C14.1641 7.69012 15.2104 9.72919 13.1651 13.3005C12.7464 14.0297 11.4839 14.5563 10.2349 14.5563Z" fill="#2ECA6A"/>
<path fill-rule="evenodd" clip-rule="evenodd" d="M13.5432 16.939C13.2255 16.939 12.9693 16.676 12.9828 16.3588C13.1516 11.1536 8.23021 9.60102 8.18282 9.58748C7.88542 9.49269 7.71667 9.18227 7.80469 8.88539C7.89896 8.588 8.2099 8.41925 8.50678 8.50727C8.56771 8.52758 9.98542 8.95935 11.3828 10.1479C12.6787 11.2479 14.2115 13.226 14.1099 16.3922C14.0969 16.6963 13.8469 16.939 13.5432 16.939Z" fill="#2ECA6A"/>
<path fill-rule="evenodd" clip-rule="evenodd" d="M21.5297 44.4297H5.55677C5.24583 44.4297 4.99635 44.1797 4.99635 43.8693C4.99635 42.1209 5.90781 40.4938 7.56146 39.2787C10.8833 36.8547 16.2031 36.8547 19.5245 39.2787C21.1786 40.4938 22.0969 42.1209 22.0969 43.8693C22.0969 44.1797 21.8401 44.4297 21.5297 44.4297Z" fill="#2ECA6A"/>
<mask id="mask0_1_224" style="mask-type:luminance" maskUnits="userSpaceOnUse" x="1" y="42" width="48" height="3">
<path d="M1.33333 42.6667H48.8V45H1.33333V42.6667Z" fill="white"/>
</mask>
<g mask="url(#mask0_1_224)">
<path fill-rule="evenodd" clip-rule="evenodd" d="M47.5411 44.9901H2.48489C1.86354 44.9901 1.36406 44.4901 1.36406 43.8693C1.36406 43.2479 1.86354 42.7417 2.48489 42.7417H47.5411C48.1625 42.7417 48.6688 43.2479 48.6688 43.8693C48.6688 44.4901 48.1625 44.9901 47.5411 44.9901Z" fill="#2ECA6A"/>
</g>
<path fill-rule="evenodd" clip-rule="evenodd" d="M31.5344 33.6682C30.5151 33.6682 29.6104 33.2229 28.9287 32.3656C27.1531 30.1375 24.7297 30.7453 24.6281 30.7724C24.1557 30.9005 23.7573 30.401 23.9802 29.9687C26.3094 25.5333 30.0427 25.5942 30.2182 25.601C34.363 25.7291 35.9969 27.3359 35.1531 31.3729C34.9167 32.5208 33.101 33.6682 31.5344 33.6682Z" fill="#2ECA6A"/>
<path fill-rule="evenodd" clip-rule="evenodd" d="M36.463 34.7417C36.2198 34.7417 35.9901 34.5797 35.9229 34.3365C35.3219 32.2505 34.0323 30.7854 32.088 29.9755C30.6031 29.3609 29.2729 29.3813 29.2594 29.3813C28.949 29.3813 28.6922 29.1385 28.6854 28.8276C28.6854 28.5172 28.9286 28.2609 29.2391 28.2542C29.3 28.2542 30.7854 28.2271 32.4729 28.9224C34.0526 29.5703 36.1255 30.9745 37.0031 34.0193C37.1042 34.3771 36.8411 34.7417 36.463 34.7417Z" fill="#2ECA6A"/>
<path fill-rule="evenodd" clip-rule="evenodd" d="M36.463 38.5833C36.1521 38.5833 35.9026 38.3333 35.9026 38.0229V16.3791C35.9026 16.0682 36.1521 15.812 36.463 15.812C36.7734 15.812 37.0234 16.0682 37.0234 16.3791V38.0229C37.0234 38.3333 36.7734 38.5833 36.463 38.5833Z" fill="#2ECA6A"/>
<path fill-rule="evenodd" clip-rule="evenodd" d="M41.3911 28.2068C39.8182 28.2068 38.0088 27.0521 37.7724 25.9047C36.9354 21.8813 38.5557 20.261 42.7078 20.1323C42.8698 20.1255 46.6099 20.0584 48.9453 24.5005C49.1682 24.9391 48.763 25.4323 48.2974 25.3104C48.1963 25.2834 45.7656 24.6761 43.9969 26.8969C43.3151 27.7542 42.4036 28.2068 41.3911 28.2068Z" fill="#2ECA6A"/>
<path fill-rule="evenodd" clip-rule="evenodd" d="M36.463 29.2734C36.0917 29.2734 35.8146 28.9156 35.9229 28.551C36.8005 25.5062 38.8661 24.1021 40.4458 23.4542C42.1406 22.7588 43.6255 22.7854 43.6865 22.7854C43.9969 22.7922 44.2401 23.049 44.2401 23.3594C44.2333 23.6698 43.9766 23.913 43.6661 23.9062C43.6391 23.9062 42.3161 23.8995 40.8375 24.5073C38.8932 25.3172 37.6036 26.7823 37.0031 28.8615C36.9286 29.1115 36.7057 29.2734 36.463 29.2734Z" fill="#2ECA6A"/>
<path fill-rule="evenodd" clip-rule="evenodd" d="M31.5344 23.2651C30.5151 23.2651 29.6104 22.8193 28.9287 21.9552C27.1531 19.7344 24.7297 20.3417 24.6281 20.3687C24.1557 20.4901 23.7573 19.9906 23.9802 19.5656C26.3094 15.1234 30.0563 15.1906 30.2182 15.1906C34.363 15.3187 35.9901 16.939 35.1531 20.963C34.9099 22.1104 33.101 23.2651 31.5344 23.2651Z" fill="#2ECA6A"/>
<path fill-rule="evenodd" clip-rule="evenodd" d="M36.463 24.3318C36.2198 24.3318 35.9901 24.1766 35.9229 23.9266C34.4714 18.9172 29.3068 18.9714 29.2526 18.9714C28.9422 18.9714 28.6922 18.7281 28.6854 18.4177C28.6786 18.1073 28.9286 17.8505 29.2391 17.8438C29.3 17.8438 30.7786 17.8234 32.4729 18.5125C34.0526 19.1604 36.1255 20.5646 37.0031 23.6161C37.1042 23.974 36.8344 24.3318 36.463 24.3318Z" fill="#2ECA6A"/>
<path fill-rule="evenodd" clip-rule="evenodd" d="M41.3911 18.9307C39.8182 18.9307 38.0088 17.7765 37.7724 16.6286C36.9354 12.6052 38.5557 10.9781 42.7078 10.8568C42.8766 10.85 46.6167 10.789 48.9453 15.2245C49.1682 15.6635 48.763 16.1562 48.2974 16.0344C48.1963 16.0078 45.7656 15.3932 43.9969 17.6213C43.3151 18.4786 42.4036 18.9307 41.3911 18.9307Z" fill="#2ECA6A"/>
<path fill-rule="evenodd" clip-rule="evenodd" d="M36.463 19.9974C36.0917 19.9974 35.8146 19.6396 35.9229 19.275C36.8005 16.2302 38.8661 14.8261 40.4458 14.1781C42.1406 13.4828 43.6255 13.5099 43.6865 13.5099C43.9969 13.5167 44.2401 13.7729 44.2401 14.0833C44.2333 14.3943 43.9766 14.637 43.6661 14.637C43.6391 14.6302 42.3161 14.6234 40.8375 15.2313C38.8932 16.0412 37.6036 17.5063 37.0031 19.5922C36.9286 19.8354 36.7057 19.9974 36.463 19.9974Z" fill="#2ECA6A"/>
<path fill-rule="evenodd" clip-rule="evenodd" d="M33.1547 14.5563C31.6156 14.5563 30.4005 13.7729 29.8604 12.3214C28.8542 9.63441 26.2891 9.4792 26.262 9.4792C25.7828 9.45888 25.5396 8.86513 25.8974 8.51409C29.4823 5.0167 33.013 6.23232 33.175 6.28597C37.0839 7.69013 38.1302 9.73597 36.0849 13.3073C35.6661 14.0297 34.4036 14.5563 33.1547 14.5563Z" fill="#2ECA6A"/>
<path fill-rule="evenodd" clip-rule="evenodd" d="M36.463 16.939C36.1453 16.939 35.8891 16.676 35.9026 16.3588C35.9698 14.1916 35.2005 12.3958 33.6005 11.0323C32.3786 9.98539 31.1094 9.58748 31.0958 9.58748C30.8052 9.49269 30.6365 9.18227 30.7245 8.88539C30.8187 8.588 31.1297 8.41925 31.4266 8.50727C31.4875 8.52758 32.8984 8.95935 34.2958 10.1479C35.599 11.2479 37.1312 13.226 37.0234 16.3922C37.0167 16.6963 36.7667 16.939 36.463 16.939Z" fill="#2ECA6A"/>
<path fill-rule="evenodd" clip-rule="evenodd" d="M44.4495 44.4297H28.4766C28.1656 44.4297 27.9094 44.1797 27.9094 43.8693C27.9094 42.1209 28.8276 40.4938 30.4813 39.2787C33.8031 36.8547 39.1229 36.8547 42.4443 39.2787C44.0984 40.4938 45.0167 42.1209 45.0167 43.8693C45.0099 44.1797 44.7599 44.4297 44.4495 44.4297Z" fill="#2ECA6A"/>
</svg>
